<svg width="696" height="570" viewBox="0 0 696 570" fill="none" xmlns="http://www.w3.org/2000/svg">
<g clip-path="url(#clip0)">
<path fill-rule="evenodd" clip-rule="evenodd" d="M369.641 11.0547C432.947 9.52258 499.768 -15.4585 554.923 15.1531C612.156 46.9179 644.941 110.211 661.172 172.858C676.731 232.907 671.175 298.096 642.53 353.286C616.268 403.884 557.51 423.902 512.44 459.422C464.252 497.398 430.739 559.602 369.641 568.348C306.11 577.442 242.863 545.02 193.083 505.135C145.085 466.678 127.892 406.605 99.946 352.264C65.6134 285.506 -8.79291 223.654 11.198 151.468C31.0969 79.6149 120.538 51.5131 190.865 23.964C247.771 1.67199 308.408 12.5367 369.641 11.0547Z" fill="#ADF0FF"/>
<path d="M353.998 295.907L351.682 286.249C349.634 277.709 356.108 269.499 364.891 269.499H369.382C374.403 269.499 378.474 265.428 378.474 260.407C378.474 257.689 379.69 255.114 381.788 253.387L395.247 242.307C405.275 234.053 418.323 230.42 431.173 232.305L448.17 234.797C459.773 236.498 470.896 240.588 480.838 246.807L482.879 248.084L487.877 250.429C495.272 253.899 499.994 261.331 499.994 269.499V271.326C499.994 278.807 497.45 286.067 492.779 291.911L488.692 297.024C485.018 301.621 479.452 304.298 473.567 304.298C468.56 304.298 463.748 302.358 460.141 298.886L459.38 298.154C450.621 289.724 436.684 290.003 428.27 298.776L427.661 299.411C424.602 302.601 420.685 304.835 416.383 305.844L392.582 311.428C390.031 312.026 387.42 312.328 384.801 312.328H374.822C364.919 312.328 356.307 305.537 353.998 295.907Z" fill="white"/>
<path d="M505.091 310.927C496.255 313.754 496.253 318.34 493.753 324.82C493.332 325.809 491.932 327.119 490.244 328.524C484.628 333.198 482.6 339.756 483.315 347.027C483.797 352.121 485.366 356.592 491.019 359.376C498.411 363.015 504.517 361.186 511.013 357.334C512.439 356.489 524.61 347.407 525.722 348.123L543.423 361.467C551.165 366.435 561.41 366.052 570.167 362.264C578.188 358.794 586.685 355.068 593.79 350.413C600.995 345.693 599.237 349.14 604.933 352.604C622.093 363.041 633.926 348.066 643.519 338.421C646.516 335.407 645.062 327.348 643.519 324.82C638.254 316.192 627.148 304.271 614.293 302.064C601.183 299.814 583.549 302.37 572.459 308.189C563.729 312.769 554.357 321.917 542.341 318.048C532.856 314.993 528.726 309.583 517.699 309.583C513.222 309.583 509.284 309.586 505.091 310.927Z" fill="white"/>
<path d="M638.991 263.271C644.012 263.271 648.048 268.799 654.441 268.799H655.608C664.983 268.799 674.262 266.919 682.897 263.271C701.697 254.806 670.596 227.932 652.617 217.842C648.067 215.289 642.753 213.246 635.457 212.258C621.521 210.372 608.928 212.677 605.768 224.103C603.692 231.615 605.744 233.264 595.367 233.264C590.855 233.264 586.241 233.056 581.735 233.264C574.331 233.604 563.558 244.558 563.558 249.61C563.558 254.625 573.634 260.467 577.292 263.587C583.835 269.169 594.862 277.327 605.264 277.327C612.878 277.327 618.531 276.542 625.359 274.168C630.76 272.291 632.95 263.271 638.991 263.271Z" fill="white"/>
<path d="M241.424 370.702L362.627 304.896L376.651 384.733L241.424 464.087V370.702Z" fill="#0E89E1"/>
<path d="M245.43 376.023L359.621 315.057L370.64 383.765L252.442 447.152L245.43 376.023Z" fill="#EEEEEC"/>
<path d="M258.719 413.902L206.764 209.491M258.719 413.902L225.501 201.826M258.719 413.902L262.125 201.826M258.719 413.902L345.702 182.126M258.719 413.902L389.769 182.126M258.719 413.902L468.555 168.771" stroke="black"/>
<path d="M330.541 339.924C332.063 348.323 334.157 356.443 336.079 364.704C337.161 369.354 338.177 374.062 339.577 378.627C340.022 380.079 340.237 381.645 340.483 383.132C340.628 384.008 340.79 385.596 341.163 386.386C341.891 387.925 341.649 389.713 342.783 391.173" stroke="black" stroke-linecap="round"/>
<path d="M273.994 380.755C285.028 377.047 296.066 373.517 307.351 370.587C309.439 370.044 312.414 369.75 314.379 368.6C316.82 367.17 319.015 365.287 321.439 363.797C323.706 362.403 325.994 360.47 328.564 359.667C331.422 358.774 334.814 358.691 337.389 357.086C340.717 355.011 344.304 352.849 347.962 351.376C349.314 350.832 350.577 350.058 351.978 349.624C352.796 349.37 353.416 349.407 354.148 348.936" stroke="black" stroke-linecap="round"/>
<path d="M306.641 390.33C313.969 387.431 317.906 386.069 324.906 382.539C331.164 379.383 336.912 375.526 342.75 371.729C344.164 370.81 345.785 369.627 347.446 369.054C347.897 368.898 348.327 368.885 348.742 368.632C349.919 367.913 351.319 367.429 352.693 367.239" stroke="black" stroke-linecap="round"/>
<path d="M338.79 364.201C338.79 364.655 338.282 367.908 339.506 367.75C341.056 367.551 341.909 365.905 342.004 364.579C342.084 363.462 341.619 362.947 340.512 362.603C339.319 362.232 339.399 363.764 338.944 364.497" stroke="#FE5A36" stroke-linecap="round"/>
<path d="M344.443 361.398L345.364 365.549" stroke="#FE5A36" stroke-linecap="round"/>
<path d="M342.783 361.397C343.518 361.043 344.545 360.286 345.324 360.072C345.569 360.004 345.673 360.088 345.852 359.915" stroke="#FE5A36" stroke-linecap="round"/>
<path d="M347.666 361.639C347.848 361.837 348.331 362.502 348.74 362.496C349.591 362.482 349.928 360.822 350.061 360.33C350.29 359.484 350.539 358.461 350.394 357.571C350.378 357.472 350.158 356.667 350.3 356.805C350.935 357.418 350.961 358.672 351.204 359.457C351.451 360.258 351.861 360.847 352.261 361.491C352.555 361.965 353.273 361.115 353.497 360.898" stroke="#FE5A36" stroke-linecap="round"/>
<path d="M355.873 360.791V361.532" stroke="#FE5A36" stroke-linecap="round"/>
<path d="M289.994 382.286C291.756 381.293 293.913 379.503 296.132 379.98C298.525 380.494 300.104 379.45 302.065 378.168C303.27 377.38 304.322 377.14 305.688 376.784C307.219 376.386 308.793 375.926 310.18 375.17C311.217 374.605 312.074 373.765 313.249 373.457C315.094 372.973 316.861 373.007 318.654 372.205C319.776 371.703 320.941 371.223 322.03 370.657C322.945 370.181 323.718 369.653 324.766 369.471C325.533 369.338 326.288 369.427 327.042 369.199C328.185 368.854 329.033 368.26 329.992 367.61C331.243 366.76 332.484 365.992 333.572 364.941" stroke="#FE5A36" stroke-linecap="round"/>
<path d="M241.424 373.604L396.686 419.088L391.175 510.054L241.424 465.539V373.604Z" fill="#0E89E1"/>
<path d="M275.694 412.228L276.789 408.539L277.118 408.63C277.096 409.07 277.267 409.34 277.631 409.441C277.769 409.479 278.089 409.477 278.591 409.433C279.376 409.374 280.157 409.452 280.935 409.668C281.989 409.96 282.743 410.509 283.196 411.317C283.649 412.125 283.75 412.95 283.5 413.792C283.272 414.56 282.835 415.152 282.189 415.567C281.545 415.976 280.786 416.198 279.913 416.233C280.733 416.629 281.316 417.216 281.662 417.994C282.01 418.766 282.058 419.577 281.806 420.425C281.495 421.474 280.833 422.216 279.821 422.652C278.809 423.087 277.698 423.137 276.487 422.802C274.686 422.303 273.542 421.068 273.055 419.095L273.436 418.978C273.602 419.585 273.934 420.16 274.431 420.703C274.929 421.246 275.529 421.615 276.232 421.809C277.066 422.04 277.794 421.945 278.415 421.522C279.044 421.096 279.477 420.483 279.714 419.684C279.959 418.86 279.874 418.083 279.459 417.354C279.044 416.624 278.162 416.072 276.813 415.699L276.996 415.081C277.95 415.345 278.698 415.444 279.24 415.378C279.783 415.312 280.271 415.097 280.706 414.731C281.14 414.365 281.446 413.885 281.622 413.292C281.825 412.606 281.782 411.986 281.491 411.432C281.2 410.879 280.694 410.502 279.973 410.303C279.076 410.054 278.294 410.125 277.629 410.514C276.971 410.9 276.436 411.501 276.023 412.319L275.694 412.228ZM291.716 422.107L286.775 420.738L285.315 422.502C284.955 422.936 284.739 423.274 284.667 423.518C284.61 423.711 284.65 423.908 284.787 424.108C284.933 424.304 285.306 424.509 285.908 424.723L285.805 425.069L281.787 423.956L281.89 423.61C282.451 423.664 282.832 423.638 283.033 423.531C283.442 423.32 283.977 422.81 284.639 422L292.229 412.796L292.558 412.887L293.866 424.678C293.972 425.626 294.131 426.268 294.343 426.604C294.564 426.935 294.93 427.189 295.442 427.364L295.339 427.71L290.304 426.316L290.407 425.969C290.922 426.085 291.289 426.095 291.508 426.001C291.732 425.907 291.875 425.758 291.936 425.552C292.018 425.277 292.021 424.809 291.946 424.146L291.716 422.107ZM291.658 421.341L291.016 415.611L287.273 420.126L291.658 421.341ZM303.089 422.806L304.223 418.986C304.436 418.268 304.528 417.797 304.5 417.573C304.473 417.343 304.34 417.137 304.102 416.957C303.864 416.776 303.488 416.611 302.976 416.462L303.078 416.116L308.575 417.638L308.472 417.985C307.943 417.845 307.531 417.792 307.236 417.825C306.941 417.858 306.717 417.971 306.564 418.166C306.414 418.353 306.235 418.794 306.03 419.487L303.662 427.463C303.446 428.193 303.357 428.675 303.396 428.909C303.442 429.144 303.573 429.343 303.79 429.504C304.015 429.661 304.388 429.822 304.909 429.987L304.807 430.333L299.311 428.811L299.413 428.464C299.969 428.605 300.384 428.659 300.659 428.627C300.935 428.588 301.15 428.483 301.303 428.309C301.456 428.135 301.64 427.686 301.855 426.962L302.867 423.555C301.076 423.822 299.682 423.817 298.685 423.541C297.938 423.334 297.373 423.019 296.99 422.595C296.612 422.173 296.415 421.774 296.398 421.398C296.389 421.017 296.538 420.309 296.845 419.273L297.484 417.119C297.694 416.414 297.783 415.942 297.752 415.704C297.727 415.467 297.591 415.261 297.345 415.085C297.106 414.904 296.737 414.741 296.237 414.595L296.34 414.249L301.855 415.777L301.752 416.123C301.219 415.976 300.793 415.922 300.476 415.962C300.158 416.003 299.927 416.131 299.781 416.347C299.644 416.559 299.48 416.983 299.291 417.62L298.769 419.38C298.524 420.204 298.397 420.803 298.388 421.179C298.38 421.548 298.493 421.867 298.726 422.134C298.961 422.395 299.301 422.587 299.746 422.71C300.687 422.971 301.802 423.003 303.089 422.806ZM312.755 419.546L311.265 424.564L314.07 425.341C314.798 425.543 315.316 425.568 315.626 425.417C316.037 425.221 316.369 424.766 316.622 424.052L316.97 424.148L315.658 428.567L315.31 428.471C315.406 427.829 315.435 427.408 315.4 427.209C315.351 426.959 315.217 426.736 314.997 426.54C314.777 426.344 314.4 426.172 313.867 426.024L311.062 425.248L309.82 429.432C309.654 429.994 309.577 430.344 309.59 430.483C309.605 430.615 309.664 430.737 309.767 430.846C309.872 430.95 310.101 431.05 310.452 431.147L312.617 431.747C313.338 431.947 313.877 432.042 314.233 432.033C314.589 432.023 314.961 431.913 315.349 431.703C315.853 431.424 316.424 430.951 317.064 430.284L317.44 430.388L315.394 433.266L305.56 430.542L305.662 430.195L306.114 430.321C306.415 430.404 306.722 430.411 307.034 430.342C307.265 430.298 307.444 430.186 307.572 430.005C307.707 429.826 307.866 429.428 308.049 428.81L310.497 420.562C310.736 419.757 310.802 419.238 310.695 419.006C310.543 418.694 310.203 418.464 309.676 418.318L309.225 418.193L309.327 417.847L319.162 420.571L318.478 423.391L318.111 423.289C318.177 422.585 318.166 422.085 318.077 421.791C317.994 421.497 317.816 421.242 317.541 421.024C317.318 420.861 316.889 420.691 316.256 420.516L312.755 419.546ZM317.486 416.541C317.769 416.619 317.977 416.785 318.113 417.038C318.254 417.294 318.283 417.562 318.2 417.843C318.116 418.124 317.945 418.336 317.685 418.48C317.433 418.62 317.166 418.651 316.883 418.572C316.601 418.494 316.388 418.33 316.245 418.081C316.103 417.826 316.074 417.558 316.158 417.277C316.241 416.996 316.413 416.784 316.673 416.64C316.933 416.495 317.204 416.463 317.486 416.541ZM314.164 415.62C314.453 415.7 314.665 415.867 314.8 416.121C314.941 416.376 314.97 416.644 314.887 416.925C314.804 417.206 314.632 417.418 314.372 417.563C314.114 417.7 313.847 417.731 313.571 417.655C313.288 417.576 313.075 417.413 312.932 417.164C312.791 416.908 312.761 416.64 312.845 416.359C312.928 416.078 313.097 415.865 313.351 415.719C313.611 415.575 313.882 415.542 314.164 415.62ZM331.867 424.091L331.125 427.107L330.767 427.008C330.854 426.465 330.871 426.064 330.818 425.807C330.731 425.391 330.55 425.053 330.273 424.794C330.005 424.531 329.608 424.326 329.081 424.18L327.283 423.682L324.404 433.381C324.173 434.161 324.113 434.672 324.225 434.912C324.386 435.24 324.714 435.473 325.209 435.61L325.652 435.733L325.549 436.079L320.137 434.58L320.24 434.234L320.692 434.359C321.232 434.508 321.662 434.452 321.985 434.19C322.182 434.029 322.386 433.592 322.597 432.881L325.476 423.182L323.942 422.757C323.346 422.592 322.91 422.518 322.633 422.536C322.271 422.564 321.924 422.715 321.592 422.987C321.26 423.26 320.987 423.677 320.772 424.239L320.415 424.14L321.449 421.205L331.867 424.091ZM334.712 431.252L340.641 432.894L341.719 429.262C341.912 428.613 341.998 428.174 341.978 427.946C341.961 427.772 341.869 427.601 341.702 427.433C341.476 427.209 341.213 427.055 340.912 426.972L340.46 426.846L340.563 426.5L346.022 428.012L345.919 428.359L345.467 428.233C345.166 428.15 344.859 428.143 344.547 428.211C344.316 428.256 344.133 428.37 343.997 428.556C343.868 428.736 343.711 429.138 343.526 429.763L341.095 437.954C340.904 438.597 340.819 439.033 340.839 439.261C340.856 439.435 340.945 439.605 341.106 439.771C341.337 439.997 341.604 440.152 341.905 440.235L342.357 440.361L342.254 440.707L336.795 439.195L336.898 438.848L337.35 438.974C337.871 439.118 338.296 439.07 338.625 438.83C338.841 438.674 339.062 438.215 339.288 437.454L340.436 433.587L334.506 431.945L333.359 435.811C333.168 436.454 333.083 436.89 333.103 437.118C333.12 437.292 333.212 437.462 333.379 437.63C333.604 437.855 333.868 438.009 334.169 438.092L334.63 438.22L334.527 438.567L329.059 437.052L329.162 436.705L329.614 436.831C330.141 436.977 330.569 436.93 330.898 436.69C331.108 436.532 331.326 436.072 331.552 435.311L333.983 427.119C334.176 426.47 334.262 426.031 334.242 425.802C334.225 425.629 334.136 425.459 333.975 425.293C333.744 425.067 333.477 424.912 333.176 424.828L332.724 424.703L332.827 424.357L338.295 425.872L338.192 426.218L337.731 426.09C337.43 426.007 337.123 426 336.811 426.068C336.587 426.114 336.406 426.23 336.27 426.415C336.135 426.594 335.975 426.995 335.79 427.62L334.712 431.252ZM352.738 439.012L347.797 437.643L346.337 439.407C345.977 439.84 345.761 440.179 345.689 440.423C345.632 440.616 345.672 440.813 345.809 441.013C345.955 441.209 346.328 441.414 346.93 441.628L346.828 441.974L342.809 440.861L342.912 440.514C343.473 440.569 343.854 440.542 344.055 440.436C344.464 440.225 344.999 439.715 345.661 438.905L353.251 429.701L353.58 429.792L354.888 441.583C354.994 442.531 355.153 443.173 355.365 443.508C355.586 443.84 355.952 444.093 356.464 444.269L356.361 444.615L351.326 443.22L351.429 442.874C351.945 442.99 352.311 443 352.53 442.905C352.754 442.812 352.897 442.663 352.958 442.457C353.04 442.182 353.043 441.713 352.968 441.051L352.738 439.012ZM352.68 438.246L352.038 432.516L348.295 437.031L352.68 438.246ZM356.418 444.631L359.824 445.575L365.906 440.836C366.222 440.937 366.481 441.015 366.681 441.071C366.763 441.093 366.851 441.118 366.945 441.144C367.041 441.164 367.14 441.184 367.242 441.206L366.147 444.895C365.91 445.693 365.675 446.165 365.442 446.31C365.122 446.519 364.724 446.557 364.247 446.425L363.748 446.287L363.645 446.633L369.113 448.148L369.216 447.801L368.736 447.668C368.197 447.519 367.863 447.237 367.734 446.823C367.66 446.593 367.73 446.116 367.945 445.392L370.379 437.191C370.616 436.393 370.851 435.921 371.084 435.776C371.411 435.569 371.815 435.533 372.298 435.666L372.778 435.799L372.881 435.453L368.232 434.165C366.877 433.79 365.846 433.612 365.141 433.633C364.444 433.649 363.79 433.86 363.181 434.265C362.58 434.666 362.171 435.232 361.954 435.962C361.723 436.742 361.776 437.49 362.114 438.205C362.458 438.921 363.131 439.547 364.133 440.081L360.417 442.993C359.567 443.663 358.884 444.075 358.37 444.229C357.856 444.384 357.239 444.402 356.52 444.284L356.418 444.631ZM367.417 440.616C367.298 440.583 367.194 440.558 367.104 440.539C367.016 440.515 366.944 440.495 366.887 440.479C365.67 440.142 364.829 439.626 364.363 438.929C363.904 438.235 363.795 437.482 364.036 436.67C364.271 435.878 364.71 435.303 365.352 434.948C366.002 434.587 366.738 434.521 367.56 434.749C367.924 434.85 368.399 435.045 368.984 435.336L367.417 440.616ZM284.672 448.243L284.569 448.589L281.275 447.677C281.086 447.01 280.651 445.731 279.97 443.84C279.29 441.943 278.85 440.875 278.649 440.637C278.45 440.393 278.097 440.197 277.591 440.05L276.465 443.842C276.217 444.678 276.166 445.238 276.313 445.522C276.466 445.807 276.937 446.073 277.726 446.319L277.624 446.665L272.127 445.142L272.23 444.796C273.022 444.988 273.56 445.006 273.844 444.848C274.137 444.686 274.408 444.184 274.658 443.341L277.054 435.271C277.302 434.435 277.35 433.874 277.197 433.588C277.044 433.303 276.576 433.038 275.793 432.794L275.895 432.448L281.391 433.97L281.289 434.317C280.484 434.121 279.939 434.105 279.653 434.269C279.373 434.434 279.109 434.935 278.861 435.772L277.81 439.31C278.496 439.494 278.983 439.581 279.27 439.573C279.56 439.559 279.912 439.447 280.327 439.238C280.749 439.03 281.104 438.781 281.394 438.49C281.693 438.194 282.11 437.692 282.646 436.983C283.149 436.318 283.531 435.867 283.792 435.628C284.061 435.385 284.424 435.215 284.88 435.119C285.338 435.016 285.84 435.041 286.386 435.192C287.352 435.459 287.736 435.93 287.535 436.604C287.465 436.842 287.307 437.021 287.06 437.141C286.82 437.264 286.578 437.291 286.333 437.224C286.157 437.175 285.892 436.993 285.537 436.679C285.227 436.397 285 436.236 284.856 436.196C284.655 436.141 284.451 436.199 284.244 436.371C284.038 436.537 283.652 437.004 283.084 437.772C282.008 439.203 280.938 440.005 279.875 440.176C280.417 440.434 280.977 441.43 281.555 443.164C282.17 445.003 282.652 446.251 283 446.908C283.349 447.565 283.906 448.01 284.672 448.243ZM290.617 442.899L296.546 444.541L297.624 440.909C297.817 440.26 297.903 439.821 297.883 439.592C297.866 439.419 297.774 439.248 297.607 439.08C297.382 438.856 297.118 438.702 296.817 438.618L296.365 438.493L296.468 438.147L301.927 439.659L301.824 440.005L301.372 439.88C301.071 439.797 300.764 439.789 300.452 439.858C300.221 439.903 300.038 440.017 299.902 440.202C299.773 440.383 299.616 440.785 299.431 441.409L297 449.601C296.809 450.244 296.724 450.68 296.744 450.908C296.761 451.082 296.85 451.251 297.011 451.418C297.242 451.644 297.509 451.799 297.81 451.882L298.262 452.007L298.159 452.354L292.7 450.842L292.803 450.495L293.255 450.62C293.776 450.765 294.201 450.717 294.53 450.477C294.746 450.321 294.967 449.862 295.193 449.101L296.341 445.234L290.412 443.592L289.264 447.458C289.073 448.101 288.988 448.537 289.008 448.765C289.025 448.939 289.117 449.109 289.284 449.277C289.509 449.502 289.773 449.656 290.074 449.739L290.535 449.867L290.432 450.213L284.964 448.699L285.067 448.352L285.519 448.477C286.046 448.623 286.474 448.576 286.803 448.337C287.013 448.179 287.231 447.719 287.457 446.958L289.888 438.766C290.081 438.117 290.167 437.678 290.147 437.449C290.13 437.276 290.041 437.106 289.88 436.94C289.649 436.714 289.382 436.559 289.081 436.475L288.629 436.35L288.732 436.004L294.2 437.519L294.097 437.865L293.636 437.737C293.335 437.654 293.028 437.646 292.716 437.715C292.492 437.761 292.311 437.877 292.175 438.062C292.04 438.241 291.881 438.642 291.695 439.266L290.617 442.899ZM311.628 444.616C311.854 443.855 311.871 443.339 311.68 443.07C311.496 442.796 311.028 442.555 310.275 442.347L310.378 442L315.902 443.531L315.799 443.877C315.002 443.683 314.459 443.668 314.173 443.832C313.887 443.996 313.62 444.496 313.371 445.332L310.976 453.402C310.728 454.238 310.68 454.799 310.833 455.085C310.986 455.37 311.454 455.635 312.237 455.879L312.134 456.225L306.61 454.695L306.713 454.349C307.53 454.548 308.081 454.566 308.367 454.402C308.656 454.232 308.923 453.732 309.169 452.901L311.331 445.618L303.172 451.524C303.017 452.068 302.943 452.443 302.95 452.648C302.965 452.848 303.077 453.034 303.283 453.206C303.497 453.38 303.909 453.558 304.52 453.741L304.417 454.088L298.912 452.562L299.014 452.216C299.812 452.41 300.355 452.425 300.641 452.261C300.927 452.097 301.194 451.597 301.443 450.761L303.838 442.691C304.086 441.855 304.134 441.294 303.981 441.008C303.828 440.723 303.36 440.458 302.577 440.214L302.68 439.868L308.185 441.393L308.082 441.739C307.278 441.543 306.733 441.527 306.447 441.691C306.16 441.855 305.893 442.355 305.645 443.192L303.475 450.503L311.628 444.616ZM318.374 457.954L318.477 457.608C319.281 457.803 319.826 457.819 320.113 457.655C320.399 457.492 320.666 456.991 320.914 456.155L322.067 452.27L321.807 452.188C321.575 452.123 321.37 452.114 321.194 452.16C321.017 452.205 320.861 452.287 320.724 452.404C320.593 452.524 319.956 453.161 318.812 454.316L315.908 457.271L312.661 456.371L312.764 456.025C313.735 456.139 314.529 455.97 315.145 455.519C315.761 455.069 316.881 454.052 318.505 452.468C319.098 451.89 319.615 451.53 320.058 451.389C319.763 451.01 319.573 450.61 319.487 450.187C319.404 449.759 319.361 448.967 319.358 447.811C319.35 446.897 319.311 446.322 319.238 446.086C319.174 445.845 319.032 445.694 318.812 445.634C318.605 445.576 318.308 445.595 317.92 445.69C317.546 445.783 317.246 445.797 317.02 445.735C316.757 445.662 316.56 445.523 316.431 445.318C316.308 445.115 316.281 444.898 316.349 444.668C316.432 444.387 316.638 444.174 316.967 444.028C317.297 443.876 317.719 443.872 318.234 444.014C318.736 444.153 319.146 444.406 319.466 444.771C319.791 445.138 319.988 445.517 320.055 445.907C320.123 446.297 320.164 447.028 320.179 448.099C320.19 449.068 320.222 449.726 320.276 450.071C320.335 450.419 320.476 450.711 320.698 450.948C320.928 451.181 321.256 451.356 321.682 451.474C321.827 451.514 322.024 451.549 322.273 451.577L323.31 448.085C323.558 447.249 323.605 446.688 323.453 446.402C323.3 446.117 322.828 445.851 322.039 445.606L322.142 445.259L327.638 446.782L327.535 447.128C326.737 446.934 326.195 446.919 325.909 447.083C325.629 447.248 325.365 447.749 325.117 448.586L324.08 452.078C324.245 452.164 324.402 452.228 324.553 452.269C325.023 452.4 325.417 452.424 325.733 452.343C326.051 452.256 326.325 452.085 326.557 451.832C326.796 451.574 327.192 451.028 327.745 450.195C328.337 449.299 328.768 448.706 329.037 448.416C329.309 448.119 329.681 447.895 330.154 447.742C330.633 447.591 331.127 447.586 331.635 447.727C332.125 447.862 332.476 448.075 332.689 448.363C332.902 448.652 332.964 448.946 332.875 449.246C332.807 449.477 332.664 449.647 332.449 449.756C332.233 449.865 331.99 449.882 331.72 449.807C331.507 449.748 331.261 449.582 330.982 449.309C330.699 449.028 330.451 448.858 330.237 448.799C330.03 448.741 329.829 448.804 329.632 448.986C329.437 449.161 329.093 449.623 328.599 450.371C327.955 451.354 327.48 452.003 327.176 452.317C326.879 452.634 326.501 452.877 326.043 453.047C326.284 453.357 326.46 453.689 326.572 454.045C326.69 454.402 326.926 455.321 327.281 456.804C327.614 458.221 327.927 459.145 328.22 459.577C328.521 460.005 329.009 460.383 329.686 460.713L329.583 461.059L326.336 460.16C326.309 459.976 326.093 458.941 325.69 457.052L325.024 453.94C324.987 453.747 324.91 453.537 324.794 453.309C324.679 453.081 324.454 452.921 324.122 452.829C324.053 452.81 323.97 452.79 323.874 452.77L322.721 456.656C322.473 457.492 322.422 458.052 322.569 458.336C322.722 458.621 323.19 458.886 323.973 459.13L323.87 459.476L318.374 457.954ZM342.664 464.308L342.561 464.654L339.267 463.742C339.078 463.075 338.643 461.796 337.961 459.905C337.282 458.008 336.841 456.94 336.641 456.702C336.441 456.458 336.089 456.262 335.582 456.115L334.457 459.907C334.209 460.743 334.158 461.303 334.305 461.587C334.458 461.872 334.929 462.138 335.718 462.384L335.615 462.73L330.119 461.208L330.222 460.861C331.014 461.054 331.552 461.071 331.836 460.913C332.129 460.751 332.4 460.249 332.65 459.406L335.045 451.336C335.294 450.5 335.341 449.939 335.188 449.653C335.035 449.368 334.567 449.103 333.784 448.859L333.887 448.513L339.383 450.035L339.28 450.382C338.476 450.186 337.931 450.17 337.645 450.334C337.365 450.499 337.1 451 336.852 451.837L335.802 455.376C336.488 455.559 336.974 455.646 337.262 455.638C337.551 455.624 337.904 455.512 338.319 455.303C338.74 455.095 339.096 454.846 339.386 454.555C339.684 454.259 340.102 453.757 340.638 453.048C341.141 452.383 341.523 451.932 341.784 451.693C342.053 451.45 342.415 451.281 342.872 451.184C343.33 451.081 343.832 451.106 344.378 451.257C345.344 451.525 345.727 451.995 345.527 452.67C345.457 452.907 345.298 453.086 345.052 453.207C344.812 453.329 344.57 453.357 344.325 453.289C344.149 453.24 343.884 453.059 343.529 452.744C343.219 452.462 342.992 452.301 342.847 452.262C342.647 452.206 342.443 452.264 342.235 452.436C342.03 452.602 341.643 453.069 341.076 453.838C339.999 455.269 338.93 456.07 337.867 456.242C338.408 456.5 338.968 457.496 339.547 459.23C340.162 461.068 340.644 462.316 340.992 462.974C341.34 463.631 341.897 464.075 342.664 464.308ZM352.706 462.865L347.766 461.496L346.305 463.26C345.945 463.694 345.729 464.033 345.657 464.276C345.6 464.469 345.64 464.666 345.777 464.867C345.923 465.062 346.297 465.267 346.899 465.481L346.796 465.827L342.777 464.714L342.88 464.368C343.441 464.422 343.822 464.396 344.024 464.29C344.432 464.079 344.968 463.568 345.629 462.759L353.219 453.554L353.548 453.645L354.856 465.436C354.962 466.384 355.121 467.026 355.334 467.362C355.554 467.693 355.921 467.947 356.432 468.122L356.329 468.469L351.294 467.074L351.397 466.727C351.913 466.843 352.28 466.854 352.498 466.759C352.722 466.666 352.865 466.516 352.926 466.31C353.008 466.035 353.011 465.567 352.936 464.904L352.706 462.865ZM352.649 462.099L352.007 456.369L348.263 460.884L352.649 462.099Z" fill="#F8E438"/>
<path d="M180.225 184.677L440.506 89.9421L467.578 164.322C469.1 168.503 467.599 173.216 463.971 175.793V175.793C391.586 227.229 305.84 258.604 217.313 265.551V265.551C212.916 265.896 208.829 263.266 207.321 259.122L180.225 184.677Z" fill="#383434"/>
<path d="M272.45 42.9904C276.12 39.8395 280.806 38.1248 285.642 38.1639L459.589 39.5715C478.208 39.7221 486.537 62.9992 472.24 74.9277L329.442 194.069C325.619 197.259 320.743 198.908 315.768 198.694L152.439 191.658C134.32 190.877 126.511 168.319 140.27 156.503L272.45 42.9904Z" fill="#423E3E"/>
<path d="M291.645 88.8234L291.54 88.8615C290.875 89.1035 290.254 89.451 289.699 89.8905L173.787 181.767C170.303 184.529 167.604 188.157 165.961 192.289C163.658 198.079 163.563 204.514 165.694 210.37L175.037 236.04C176.071 238.881 179.213 240.346 182.054 239.312C184.894 238.278 186.359 235.136 185.325 232.295L179.935 217.487L175.91 206.428C175.432 205.115 175.191 203.728 175.196 202.331C175.209 198.716 176.873 195.304 179.713 193.068L297.874 100.01C300.074 98.2776 300.913 95.3293 299.955 92.6985C298.731 89.3336 295.01 87.5986 291.645 88.8234Z" fill="#FE5A36"/>
<path d="M182.98 236.665L180.55 237.55C178.491 238.299 177.16 240.301 177.266 242.489L178.146 260.7C178.309 264.065 181.685 266.31 184.85 265.157L197.045 260.719C200.168 259.582 201.334 255.771 199.38 253.082L188.735 238.425C187.424 236.62 185.076 235.902 182.98 236.665Z" fill="#FE5A36"/>
<ellipse cx="180.08" cy="233.303" rx="6.3971" ry="6.32119" transform="rotate(-20 180.08 233.303)" fill="#F8E438"/>
</g>
<defs>
<clipPath id="clip0">
<rect width="695.33" height="569.89" fill="white"/>
</clipPath>
</defs>
</svg>
