<svg width="444" height="350" viewBox="0 0 444 350" fill="none" xmlns="http://www.w3.org/2000/svg">
<circle cx="222.069" cy="175" r="175" fill="#ADF0FF"/>
<path d="M299.556 262.198L293.324 255.62C289.532 251.618 287.636 249.616 285.536 247.839C283.436 246.061 281.15 244.522 276.576 241.443L244.465 219.825L183.74 184.867L305.907 206.753L299.556 262.198Z" fill="#EBF2F8"/>
<path d="M319.163 257.168L305.063 247.652C298.772 243.406 295.627 241.283 292.211 239.664C288.795 238.044 285.161 236.952 277.892 234.769L234.176 221.635L210.229 213.149C199.754 209.437 191.255 201.599 186.709 191.458L189.513 187.749L221.612 183.769L259.648 198.448L322.743 224.313L319.163 257.168Z" fill="#EBF2F8"/>
<path d="M322.415 248.877L184.274 180.767H202.953L329.006 233.898L322.415 248.877Z" fill="#EBF2F8"/>
<path d="M327.017 235.587L186.778 176.371L199.963 179.413H206.855L335.706 225.523L327.017 235.587Z" fill="#EBF2F8"/>
<path d="M175.957 211.991C172.85 214.418 169.335 216.272 165.578 217.467L144.086 224.303L119.09 230.53C113.426 231.941 110.594 232.647 107.876 233.671C106.607 234.149 105.357 234.679 104.13 235.259C101.505 236.5 99.0284 238.044 94.076 241.133L95.9099 220.209L115.08 202.467L189.513 183.601L188.325 191.037C186.999 199.334 182.58 206.821 175.957 211.991Z" fill="#EBF2F8"/>
<path d="M186.778 184.168C180.069 196.26 169.497 205.751 156.755 211.124L151.873 213.182C144.066 216.474 135.77 218.457 127.318 219.051L108.784 220.355C107.283 220.46 106.532 220.513 105.792 220.587C99.2403 221.244 92.8834 223.189 87.0857 226.309C86.4305 226.662 85.7787 227.038 84.4749 227.791C84.4749 222.04 82.152 216.533 78.0334 212.519L76.6296 211.151L147.238 184.168H186.778Z" fill="#EBF2F8"/>
<path d="M199.733 188.844L189.005 191.723L187.925 186.6L198.38 187.099L199.733 188.844Z" fill="#EBF2F8"/>
<path d="M294.738 223.656L326.965 238.195L325.464 242.104L310.428 235.911L267.281 218.754L235.771 202.346L235.771 202.346C233.321 201.07 232.096 200.432 230.895 199.764C223.943 195.898 217.477 191.215 211.634 185.816C210.625 184.883 209.637 183.919 207.66 181.989L256.298 205.274L294.738 223.656Z" fill="#E2E8EE"/>
<path d="M168.568 186.08L170.693 182.483L143.935 194.49L143.934 194.491C143.565 194.656 143.381 194.739 143.197 194.82C136.461 197.81 129.415 200.047 122.187 201.488C121.989 201.528 121.791 201.566 121.394 201.644L121.393 201.644C120.92 201.736 120.684 201.783 120.449 201.83C111.843 203.553 103.502 206.402 95.6406 210.302C95.4255 210.409 95.2101 210.517 94.7792 210.733L85.0528 215.617L126.672 204.364L147.275 200.788C152.653 199.855 157.687 197.512 161.864 193.998C164.529 191.756 166.796 189.079 168.568 186.08Z" fill="#E2E8EE"/>
<path d="M245.317 213.851L322.343 248.802L254.731 222.43L227.136 211.47C215.072 206.679 205.109 197.748 199.032 186.277L245.317 213.851Z" fill="#E2E8EE"/>
<path d="M178.932 184.953L180.639 178.669L175.874 183.986C175.455 184.454 175.245 184.688 175.034 184.92C171.719 188.574 168.137 191.977 164.319 195.101C164.077 195.3 163.823 195.505 163.316 195.914C162.273 196.758 161.751 197.179 161.248 197.575C152.558 204.414 142.794 209.765 132.353 213.41C131.749 213.62 131.138 213.825 129.917 214.234C129.025 214.532 128.58 214.682 128.137 214.834C120.494 217.473 113.199 221.028 106.413 225.423C106.02 225.677 105.628 225.937 104.844 226.455L96.9831 231.65L132.405 218.699L147.836 215.047C154.049 213.576 159.848 210.72 164.799 206.691C171.668 201.102 176.611 193.499 178.932 184.953Z" fill="#E2E8EE"/>
<path d="M360.118 237.229L220.277 187.749L281.233 94.3916L372.07 125.2L360.118 237.229Z" fill="#FF5FF9"/>
<path d="M220.172 187.749H167.945L143.047 187.136L220.172 92.143L238.847 91.1606C243.615 90.9098 245.998 90.7844 248.323 91.2143C250.648 91.6441 252.83 92.6134 257.192 94.5519L270.476 100.455L220.172 187.749Z" fill="#BA4FE0"/>
<path d="M220.277 187.749C213.344 185.525 209.878 184.413 206.397 183.566C193.521 180.433 180.15 179.889 167.062 181.969C163.524 182.53 159.979 183.357 152.889 185.011L142.843 187.354L220.165 90.0089L224.461 89.7214C237.544 88.8458 244.085 88.408 250.6 88.8225C252.225 88.9259 253.848 89.0691 255.467 89.2518C261.953 89.9839 268.317 91.56 281.045 94.712L220.277 187.749Z" fill="#D767FF"/>
<path d="M143.669 187.021L72.0699 214.823L179.398 107.145L220.171 90.0072L143.669 187.021Z" fill="#FF5FF9"/>
</svg>
