<svg width="400" height="300" viewBox="0 0 400 300" fill="none" xmlns="http://www.w3.org/2000/svg">
<rect x="172.342" y="154.742" width="14.5066" height="140.389" fill="#C4C4C4"/>
<path d="M382.284 178.43L229.965 158.14V223.767L382.284 236.132V178.43Z" fill="#FFF281"/>
<path d="M261.099 215.894H230.113L227.658 287.929L382.284 254.521V178.833L261.099 193.449V215.894Z" fill="#FECC6C"/>
<path d="M230.995 164.557V156.035L380.369 178.314V188.24L230.995 164.557Z" fill="#F8E438"/>
<path d="M230.84 220.422H258.697L263.252 198.151L381.594 184.513" stroke="#F7BE52" stroke-width="5"/>
<path d="M261.521 224.889H231.694V216.906H255.982L261.521 192.957L382.109 179.12V187.635L266.208 200.408L261.521 224.889Z" fill="#F6BE52"/>
<path d="M17.7162 178.43L170.035 158.14V223.767L17.7162 236.132V178.43Z" fill="#FFF281"/>
<path d="M138.901 215.894H169.887L172.342 287.929L17.7162 254.521V178.833L138.901 193.449V215.894Z" fill="#FECC6C"/>
<path d="M169.005 164.557V156.035L19.6312 178.314V188.24L169.005 164.557Z" fill="#F8E438"/>
<path d="M169.16 220.422H141.303L136.748 198.151L18.4056 184.513" stroke="#F7BE52" stroke-width="5"/>
<path d="M138.479 224.889H168.306V216.906H144.018L138.479 192.957L17.8906 179.12V187.635L133.792 200.408L138.479 224.889Z" fill="#F6BE52"/>
<ellipse cx="198.95" cy="148.874" rx="23.3811" ry="36.9067" fill="#F8E438"/>
<path d="M225.302 147.72H172.459L165.928 154.336L155.517 162.074H244.834L232.172 154.116L225.302 147.72Z" fill="#F8E438"/>
<rect x="172.342" y="154.742" width="55.9541" height="145.258" fill="#FFF281"/>
<path d="M213.387 154.024H230.663L231.275 300H213.789L213.387 154.024Z" fill="#FF67F9"/>
<rect x="167.688" y="153.751" width="17.4863" height="146.249" fill="#FF67F9"/>
<rect x="185.175" y="203.841" width="28.3847" height="15.559" fill="#F6BE52"/>
</svg>
