<svg width="512" height="512" viewBox="0 0 512 512" fill="none" xmlns="http://www.w3.org/2000/svg">
<g clip-path="url(#clip0)">
<path d="M212.26 390.24L151.929 450.571C126.917 475.583 86.4121 475.583 61.4211 450.576C36.4251 425.58 36.4251 385.071 61.4161 360.08L182.099 239.397C207.09 214.405 247.599 214.405 272.59 239.397C280.921 247.728 294.429 247.728 302.76 239.397C311.091 231.066 311.091 217.558 302.76 209.227C261.106 167.573 193.583 167.573 151.929 209.227L31.2471 329.909C-10.4069 371.563 -10.4069 439.086 31.2471 480.74C72.8961 522.416 140.424 522.416 182.1 480.74L242.431 420.409C250.762 412.078 250.762 398.57 242.431 390.239C234.1 381.908 220.591 381.909 212.26 390.24Z" fill="#595959"/>
<path d="M480.751 31.24C439.097 -10.414 371.552 -10.414 329.898 31.24L257.514 103.624C249.183 111.955 249.183 125.463 257.514 133.794C265.845 142.125 279.353 142.125 287.684 133.794L360.068 61.41C385.059 36.418 425.589 36.418 450.581 61.41C475.572 86.401 475.572 126.91 450.581 151.901L317.845 284.638C292.853 309.63 252.345 309.63 227.354 284.638C219.023 276.307 205.515 276.307 197.184 284.638C188.853 292.969 188.853 306.477 197.184 314.808C238.838 356.462 306.361 356.462 348.015 314.808L480.751 182.072C522.405 140.418 522.405 72.894 480.751 31.24Z" fill="#595959"/>
</g>
<defs>
<clipPath id="clip0">
<rect width="511.997" height="511.997" fill="white"/>
</clipPath>
</defs>
</svg>
