<svg width="604" height="538" viewBox="0 0 604 538" fill="none" xmlns="http://www.w3.org/2000/svg">
<ellipse cx="343.366" cy="298.648" rx="242.466" ry="224.601" fill="#ADF0FF"/>
<path d="M222.647 454.881L115.509 128.014M222.647 454.881L154.964 116.068M222.647 454.881L208.713 116.068M222.647 454.881L405.829 128.014M222.647 454.881L362.882 121.823M222.647 454.881L331.329 116.068" stroke="black"/>
<path d="M381.058 276.09L366.761 261.952C362.89 258.124 360.955 256.211 358.827 254.521C356.7 252.831 354.398 251.38 349.794 248.476L293.195 212.779L196.345 160.546L391.188 193.247L381.058 276.09Z" fill="#EBF2F8"/>
<path d="M412.33 268.575L382.057 249.434C375.908 245.546 372.834 243.602 369.523 242.127C366.212 240.652 362.71 239.666 355.707 237.695L276.785 215.483L237.396 202.406C221.445 197.111 208.335 185.554 201.08 170.394L205.552 164.851L256.747 158.905L317.41 180.839L418.04 219.484L412.33 268.575Z" fill="#EBF2F8"/>
<path d="M417.517 256.187L197.196 154.42H226.987L428.029 233.805L417.517 256.187Z" fill="#EBF2F8"/>
<path d="M424.857 236.33L201.19 147.852L222.218 152.398H233.211L438.714 221.292L424.857 236.33Z" fill="#EBF2F8"/>
<path d="M183.585 201.328C178.856 204.787 173.569 207.41 167.954 209.083L133.101 219.469L86.6442 230.312C79.3115 232.024 75.6451 232.879 72.1606 234.267C68.6761 235.655 65.4254 237.555 58.924 241.354L53.3402 244.616L56.2651 213.351L86.84 186.843L205.552 158.655L203.863 168.557C201.621 181.701 194.347 193.456 183.585 201.328Z" fill="#EBF2F8"/>
<path d="M201.191 159.502C190.485 177.577 174.07 191.576 154.531 199.294L144.892 203.102C141.277 204.529 139.47 205.243 137.646 205.883C130.306 208.459 122.691 210.17 114.955 210.981C113.032 211.183 111.093 211.31 107.215 211.566L76.4851 213.59C66.9789 214.217 62.2258 214.53 57.6541 215.717C56.7963 215.94 55.9447 216.186 55.1 216.454C50.5979 217.883 46.4079 220.149 38.0278 224.68C38.0278 216.119 34.4255 207.953 28.1028 202.181L25.5153 199.818L138.128 159.502H201.191Z" fill="#EBF2F8"/>
<path d="M221.852 166.487L204.741 170.79L203.02 163.135L219.693 163.88L221.852 166.487Z" fill="#EBF2F8"/>
<path d="M373.376 218.503L424.774 240.227L422.38 246.066L398.399 236.814L329.585 211.178L278.897 186.451C267.522 180.902 261.834 178.127 256.559 174.673C255.579 174.031 254.611 173.372 253.654 172.697C248.504 169.059 243.835 164.788 234.495 156.245L312.068 191.036L373.376 218.503Z" fill="#E2E8EE"/>
<path d="M172.38 161.99L175.538 156.985L132.986 174.872L132.986 174.872C125.591 177.98 121.894 179.535 118.093 180.786C116.287 181.38 114.465 181.923 112.628 182.413C108.762 183.445 104.817 184.167 96.9264 185.61L96.9264 185.611C87.5062 187.334 82.7962 188.195 78.2045 189.498C76.0236 190.116 73.8644 190.808 71.7306 191.574C67.238 193.185 62.9052 195.223 54.2397 199.299L38.95 206.492L105.329 189.678L138.759 184.242C146.973 182.906 154.713 179.502 161.25 174.351C165.637 170.894 169.401 166.714 172.38 161.99Z" fill="#E2E8EE"/>
<path d="M294.555 203.853L417.403 256.074L309.569 216.671L264.337 199.841C245.874 192.971 230.432 179.801 220.735 162.653L294.555 203.853Z" fill="#E2E8EE"/>
<path d="M189.044 159.41L191.399 151.286L184.097 158.919C180.102 163.095 178.105 165.183 175.993 167.15C174.914 168.155 173.814 169.135 172.692 170.091C170.495 171.963 168.191 173.707 163.583 177.195L163.583 177.195L163.583 177.195C153.595 184.756 148.601 188.536 143.208 191.65C140.457 193.238 137.631 194.694 134.741 196.014C129.076 198.6 123.1 200.474 111.147 204.223L110.442 204.444C101.257 207.324 96.6652 208.764 92.2452 210.632C90.4419 211.394 88.6614 212.209 86.9059 213.075C82.6032 215.199 78.5114 217.732 70.3277 222.8L57.9771 230.447L114.471 211.096L139.97 205.442C149.303 203.373 158.075 199.299 165.677 193.504C176.918 184.936 185.109 172.984 189.044 159.41Z" fill="#E2E8EE"/>
<path d="M477.649 238.782L254.618 164.852L351.836 25.3618L496.711 71.3937L477.649 238.782Z" fill="#FF5FF9"/>
<path d="M254.45 164.852H171.153L131.444 163.937L254.45 22.0021L290.501 20.2255C294.988 20.0043 297.232 19.8938 299.426 20.2764C301.621 20.6591 303.695 21.5224 307.843 23.2492L334.68 34.4215L254.45 164.852Z" fill="#BA4FE0"/>
<path d="M254.617 164.852L251.104 163.796C226.427 156.382 214.089 152.675 201.355 152.186C188.622 151.697 176.036 154.448 150.863 159.948L131.119 164.262L254.438 18.8135L277.826 17.3471C292.404 16.4331 299.693 15.9761 306.946 16.5771C314.198 17.1782 321.313 18.8288 335.542 22.1299L351.536 25.8407L254.617 164.852Z" fill="#D767FF"/>
<path d="M132.435 163.765L18.2425 205.304L189.419 44.4168L254.449 18.8105L132.435 163.765Z" fill="#FF5FF9"/>
<path d="M66.5548 420.343V457.163H61.5848V424.753H38.4848V457.163H33.5148V420.343H66.5548ZM93.3528 420.063C98.1595 420.063 101.846 421.276 104.413 423.703C106.979 426.083 108.263 429.629 108.263 434.343V457.163H103.503V451.423C102.383 453.336 100.726 454.829 98.5328 455.903C96.3861 456.976 93.8195 457.513 90.8328 457.513C86.7261 457.513 83.4595 456.533 81.0328 454.573C78.6061 452.613 77.3928 450.023 77.3928 446.803C77.3928 443.676 78.5128 441.156 80.7528 439.243C83.0395 437.329 86.6561 436.373 91.6028 436.373H103.293V434.133C103.293 430.959 102.406 428.556 100.633 426.923C98.8595 425.243 96.2695 424.403 92.8628 424.403C90.5295 424.403 88.2895 424.799 86.1428 425.593C83.9961 426.339 82.1528 427.389 80.6128 428.743L78.3728 425.033C80.2395 423.446 82.4795 422.233 85.0928 421.393C87.7061 420.506 90.4595 420.063 93.3528 420.063ZM91.6028 453.593C94.4028 453.593 96.8061 452.963 98.8128 451.703C100.819 450.396 102.313 448.529 103.293 446.103V440.083H91.7428C85.4428 440.083 82.2928 442.276 82.2928 446.663C82.2928 448.809 83.1095 450.513 84.7428 451.773C86.3761 452.986 88.6628 453.593 91.6028 453.593ZM140.463 420.063C143.917 420.063 147.043 420.856 149.843 422.443C152.643 423.983 154.837 426.176 156.423 429.023C158.01 431.869 158.803 435.113 158.803 438.753C158.803 442.439 158.01 445.706 156.423 448.553C154.837 451.399 152.643 453.616 149.843 455.203C147.09 456.743 143.963 457.513 140.463 457.513C137.477 457.513 134.77 456.906 132.343 455.693C129.963 454.433 128.003 452.613 126.463 450.233V470.743H121.493V420.343H126.253V427.623C127.747 425.196 129.707 423.329 132.133 422.023C134.607 420.716 137.383 420.063 140.463 420.063ZM140.113 453.103C142.68 453.103 145.013 452.519 147.113 451.353C149.213 450.139 150.847 448.436 152.013 446.243C153.227 444.049 153.833 441.553 153.833 438.753C153.833 435.953 153.227 433.479 152.013 431.333C150.847 429.139 149.213 427.436 147.113 426.223C145.013 425.009 142.68 424.403 140.113 424.403C137.5 424.403 135.143 425.009 133.043 426.223C130.99 427.436 129.357 429.139 128.143 431.333C126.977 433.479 126.393 435.953 126.393 438.753C126.393 441.553 126.977 444.049 128.143 446.243C129.357 448.436 130.99 450.139 133.043 451.353C135.143 452.519 137.5 453.103 140.113 453.103ZM181.947 420.063C186.753 420.063 190.44 421.276 193.007 423.703C195.573 426.083 196.857 429.629 196.857 434.343V457.163H192.097V451.423C190.977 453.336 189.32 454.829 187.127 455.903C184.98 456.976 182.413 457.513 179.427 457.513C175.32 457.513 172.053 456.533 169.627 454.573C167.2 452.613 165.987 450.023 165.987 446.803C165.987 443.676 167.107 441.156 169.347 439.243C171.633 437.329 175.25 436.373 180.197 436.373H191.887V434.133C191.887 430.959 191 428.556 189.227 426.923C187.453 425.243 184.863 424.403 181.457 424.403C179.123 424.403 176.883 424.799 174.737 425.593C172.59 426.339 170.747 427.389 169.207 428.743L166.967 425.033C168.833 423.446 171.073 422.233 173.687 421.393C176.3 420.506 179.053 420.063 181.947 420.063ZM180.197 453.593C182.997 453.593 185.4 452.963 187.407 451.703C189.413 450.396 190.907 448.529 191.887 446.103V440.083H180.337C174.037 440.083 170.887 442.276 170.887 446.663C170.887 448.809 171.703 450.513 173.337 451.773C174.97 452.986 177.257 453.593 180.197 453.593ZM285.51 420.343V457.163H280.54V424.753H257.44V457.163H252.47V420.343H285.51ZM329.738 420.343V457.163H324.768V424.753H307.128L306.638 433.853C306.265 441.506 305.378 447.386 303.978 451.493C302.578 455.599 300.081 457.653 296.488 457.653C295.508 457.653 294.318 457.466 292.918 457.093L293.268 452.823C294.108 453.009 294.691 453.103 295.018 453.103C296.931 453.103 298.378 452.216 299.358 450.443C300.338 448.669 300.991 446.476 301.318 443.863C301.645 441.249 301.925 437.796 302.158 433.503L302.788 420.343H329.738ZM356.536 420.063C361.343 420.063 365.03 421.276 367.596 423.703C370.163 426.083 371.446 429.629 371.446 434.343V457.163H366.686V451.423C365.566 453.336 363.91 454.829 361.716 455.903C359.57 456.976 357.003 457.513 354.016 457.513C349.91 457.513 346.643 456.533 344.216 454.573C341.79 452.613 340.576 450.023 340.576 446.803C340.576 443.676 341.696 441.156 343.936 439.243C346.223 437.329 349.84 436.373 354.786 436.373H366.476V434.133C366.476 430.959 365.59 428.556 363.816 426.923C362.043 425.243 359.453 424.403 356.046 424.403C353.713 424.403 351.473 424.799 349.326 425.593C347.18 426.339 345.336 427.389 343.796 428.743L341.556 425.033C343.423 423.446 345.663 422.233 348.276 421.393C350.89 420.506 353.643 420.063 356.536 420.063ZM354.786 453.593C357.586 453.593 359.99 452.963 361.996 451.703C364.003 450.396 365.496 448.529 366.476 446.103V440.083H354.926C348.626 440.083 345.476 442.276 345.476 446.663C345.476 448.809 346.293 450.513 347.926 451.773C349.56 452.986 351.846 453.593 354.786 453.593ZM384.677 420.343H389.647V436.653H412.817V420.343H417.787V457.163H412.817V440.923H389.647V457.163H384.677V420.343ZM464.113 440.293H433.313C433.593 444.119 435.063 447.223 437.723 449.603C440.383 451.936 443.743 453.103 447.803 453.103C450.09 453.103 452.19 452.706 454.103 451.913C456.017 451.073 457.673 449.859 459.073 448.273L461.873 451.493C460.24 453.453 458.187 454.946 455.713 455.973C453.287 456.999 450.603 457.513 447.663 457.513C443.883 457.513 440.523 456.719 437.583 455.133C434.69 453.499 432.427 451.259 430.793 448.413C429.16 445.566 428.343 442.346 428.343 438.753C428.343 435.159 429.113 431.939 430.653 429.093C432.24 426.246 434.387 424.029 437.093 422.443C439.847 420.856 442.927 420.063 446.333 420.063C449.74 420.063 452.797 420.856 455.503 422.443C458.21 424.029 460.333 426.246 461.873 429.093C463.413 431.893 464.183 435.113 464.183 438.753L464.113 440.293ZM446.333 424.333C442.787 424.333 439.8 425.476 437.373 427.763C434.993 430.003 433.64 432.943 433.313 436.583H459.423C459.097 432.943 457.72 430.003 455.293 427.763C452.913 425.476 449.927 424.333 446.333 424.333ZM494.155 420.063C497.608 420.063 500.735 420.856 503.535 422.443C506.335 423.983 508.528 426.176 510.115 429.023C511.701 431.869 512.495 435.113 512.495 438.753C512.495 442.439 511.701 445.706 510.115 448.553C508.528 451.399 506.335 453.616 503.535 455.203C500.781 456.743 497.655 457.513 494.155 457.513C491.168 457.513 488.461 456.906 486.035 455.693C483.655 454.433 481.695 452.613 480.155 450.233V470.743H475.185V420.343H479.945V427.623C481.438 425.196 483.398 423.329 485.825 422.023C488.298 420.716 491.075 420.063 494.155 420.063ZM493.805 453.103C496.371 453.103 498.705 452.519 500.805 451.353C502.905 450.139 504.538 448.436 505.705 446.243C506.918 444.049 507.525 441.553 507.525 438.753C507.525 435.953 506.918 433.479 505.705 431.333C504.538 429.139 502.905 427.436 500.805 426.223C498.705 425.009 496.371 424.403 493.805 424.403C491.191 424.403 488.835 425.009 486.735 426.223C484.681 427.436 483.048 429.139 481.835 431.333C480.668 433.479 480.085 435.953 480.085 438.753C480.085 441.553 480.668 444.049 481.835 446.243C483.048 448.436 484.681 450.139 486.735 451.353C488.835 452.519 491.191 453.103 493.805 453.103Z" fill="black"/>
<path d="M224.217 458.163C221.284 458.163 218.75 457.096 216.617 454.963C214.617 452.829 213.617 450.229 213.617 447.163C213.617 444.096 214.617 441.563 216.617 439.563C218.75 437.429 221.284 436.363 224.217 436.363C227.15 436.363 229.684 437.429 231.817 439.563C233.95 441.563 235.017 444.096 235.017 447.163C235.017 450.229 233.95 452.829 231.817 454.963C229.684 457.096 227.15 458.163 224.217 458.163Z" fill="#FF5FF9"/>
<path d="M374.291 338.503L372.703 330.036C371.844 325.453 375.36 321.216 380.024 321.216H380.951C384.552 321.216 387.471 318.297 387.471 314.696C387.471 313.024 388.113 311.417 389.264 310.205L394.809 304.368C401.042 297.807 410.176 294.853 419.071 296.521L424.815 297.598C430.846 298.728 436.506 301.325 441.298 305.158L443.124 306.618L444.424 307.398C449.277 310.311 452.247 315.556 452.247 321.216V324.469C452.247 328.305 451.169 332.064 449.136 335.317L445.725 340.774C444.107 343.363 441.269 344.936 438.215 344.936C435.549 344.936 433.024 343.735 431.342 341.665L430.787 340.981C426.395 335.576 418.092 335.737 413.913 341.309L413.43 341.952C411.976 343.891 409.94 345.312 407.619 346.008L395.309 349.701C393.742 350.171 392.114 350.41 390.478 350.41H388.638C381.614 350.41 375.585 345.407 374.291 338.503Z" fill="white"/>
<path d="M454.964 349.456C450.254 351.383 450.253 354.508 448.92 358.925C448.744 359.456 448.244 360.122 447.601 360.848C444.294 364.582 442.974 369.09 443.356 374.063C443.613 377.535 444.45 380.583 447.463 382.481C451.403 384.961 454.658 383.714 458.121 381.089C458.881 380.513 465.369 374.322 465.961 374.81L475.397 383.906C479.523 387.292 484.984 387.031 489.652 384.449C493.928 382.084 498.457 379.544 502.244 376.371C506.085 373.153 505.148 375.503 508.184 377.865C517.331 384.979 523.639 374.771 528.752 368.197C530.35 366.143 529.575 360.649 528.752 358.925C525.945 353.044 520.026 344.918 513.173 343.414C506.185 341.88 496.786 343.623 490.874 347.589C486.22 350.711 481.225 356.947 474.82 354.309C469.764 352.227 467.562 348.539 461.685 348.539C459.298 348.539 457.199 348.542 454.964 349.456Z" fill="white"/>
<path d="M526.338 316.971C529.014 316.971 531.165 320.739 534.573 320.739H534.84C540.043 320.739 545.164 319.444 549.742 316.971C561.45 310.23 543.284 291.33 531.527 284.674C529.563 283.563 527.289 282.689 524.454 282.199C517.026 280.913 510.313 282.484 508.629 290.273C507.522 295.393 508.615 296.517 503.085 296.517C500.679 296.517 498.22 296.375 495.818 296.517C491.871 296.749 486.129 304.215 486.129 307.659C486.129 311.077 491.5 315.06 493.449 317.186C496.937 320.991 502.815 326.552 508.36 326.552C512.418 326.552 515.431 326.017 519.071 324.399C521.95 323.12 523.118 316.971 526.338 316.971Z" fill="white"/>
<path d="M415.748 307.389L399.872 303.735L422.275 321.467L432.357 270.785L415.748 307.389Z" fill="#858585"/>
<path d="M483.2 358.381L457.877 352.433L490.306 369.57L501.281 329.287L483.2 358.381Z" fill="#858585"/>
<path d="M521.399 298.918L509.136 286.442L526.6 314.036L534.635 259.611L521.399 298.918Z" fill="#858585"/>
<rect x="210.402" y="433.762" width="30" height="30" rx="5" fill="white"/>
<path d="M223.905 451.19L204.822 444.507L229.26 463.762L237.531 418.501L223.905 451.19Z" fill="#FF5FF9"/>
</svg>
