<svg width="3316" height="961" viewBox="0 0 3316 961" fill="none" xmlns="http://www.w3.org/2000/svg">
<rect x="0.763672" y="0.336914" width="3315.08" height="960.59" fill="#ADF0FF"/>
<g clip-path="url(#clip0)">
<path fill-rule="evenodd" clip-rule="evenodd" d="M1875.36 220.404C1981.23 226.044 2084.74 215.296 2185.32 236.153C2321.93 264.485 2513.49 277.134 2554.19 361.185C2595.18 445.845 2445.72 557.702 2331.79 557.702C2368.41 641.117 2244.04 695.686 2155.42 728.923C2071.63 760.348 1973.8 768.359 1875.36 770.379C1773.51 772.469 1664.15 776.595 1581.18 740.706C1497.91 704.69 1403.96 707.687 1361.33 651.289C1311.6 585.502 1295.41 455.562 1311.45 383.844C1328.39 308.15 1409.56 233.806 1523.16 200.881C1632.2 169.277 1754.97 213.992 1875.36 220.404Z" fill="#ADF0FF"/>
<path d="M1404.56 355.311L1402.24 345.653C1400.19 337.112 1406.67 328.903 1415.45 328.903H1419.94C1424.96 328.903 1429.03 324.832 1429.03 319.81C1429.03 317.093 1430.25 314.517 1432.35 312.79L1445.81 301.711C1455.83 293.457 1468.88 289.824 1481.73 291.708L1498.73 294.201C1510.33 295.902 1521.45 299.991 1531.4 306.211L1533.44 307.488L1538.44 309.833C1545.83 313.302 1550.55 320.734 1550.55 328.903V330.729C1550.55 338.211 1548.01 345.47 1543.34 351.315L1539.25 356.428C1535.58 361.025 1530.01 363.702 1524.13 363.702C1519.12 363.702 1514.31 361.762 1510.7 358.29L1509.94 357.557C1501.18 349.128 1487.24 349.407 1478.83 358.18L1478.22 358.815C1475.16 362.004 1471.24 364.239 1466.94 365.248L1443.14 370.832C1440.59 371.43 1437.98 371.732 1435.36 371.732H1425.38C1415.48 371.732 1406.87 364.941 1404.56 355.311Z" fill="white"/>
<path d="M1555.65 370.332C1546.81 373.159 1546.81 377.744 1544.31 384.224C1543.89 385.213 1542.49 386.524 1540.8 387.928C1535.19 392.603 1533.16 399.16 1533.87 406.432C1534.36 411.526 1535.92 415.997 1541.58 418.78C1548.97 422.42 1555.08 420.59 1561.57 416.739C1563 415.893 1575.17 406.811 1576.28 407.527L1593.98 420.872C1601.72 425.839 1611.97 425.456 1620.73 421.668C1628.75 418.198 1637.24 414.473 1644.35 409.818C1651.55 405.097 1649.8 408.544 1655.49 412.008C1672.65 422.445 1684.48 407.47 1694.08 397.825C1697.08 394.812 1695.62 386.752 1694.08 384.224C1688.81 375.596 1677.71 363.675 1664.85 361.468C1651.74 359.218 1634.11 361.775 1623.02 367.593C1614.29 372.173 1604.92 381.321 1592.9 377.452C1583.41 374.398 1579.28 368.987 1568.26 368.987C1563.78 368.987 1559.84 368.99 1555.65 370.332Z" fill="white"/>
<path d="M1689.55 322.675C1694.57 322.675 1698.61 328.203 1705 328.203H1706.17C1715.54 328.203 1724.82 326.323 1733.46 322.675C1752.26 314.211 1721.15 287.337 1703.18 277.247C1698.63 274.693 1693.31 272.65 1686.02 271.663C1672.08 269.776 1659.49 272.081 1656.33 283.508C1654.25 291.019 1656.3 292.668 1645.93 292.668C1641.41 292.668 1636.8 292.461 1632.29 292.668C1624.89 293.008 1614.12 303.962 1614.12 309.014C1614.12 314.029 1624.19 319.871 1627.85 322.991C1634.39 328.573 1645.42 336.731 1655.82 336.731C1663.44 336.731 1669.09 335.946 1675.92 333.573C1681.32 331.696 1683.51 322.675 1689.55 322.675Z" fill="white"/>
<path d="M1756.24 377.869C1765.04 368.093 1777.13 355.849 1795.83 363.273C1803.34 366.258 1806.83 369.012 1815.65 365.462C1836.56 357.055 1852.93 347.277 1871.75 363.215C1876.25 367.023 1877.2 371.667 1880.56 375.662C1887.16 383.53 1895.16 388.001 1895.16 397.329C1895.16 404.305 1885.56 405.521 1875.62 406.779C1869.84 407.512 1863.85 408.021 1857.92 407.759C1857.1 407.723 1855.82 407.388 1854.61 407.003C1863.73 412.559 1825.97 422.258 1820.68 423.145C1810.87 424.79 1798.78 425.568 1789.73 422.223C1785.82 420.776 1755.05 408.276 1763.23 402.861C1763.97 402.373 1771.04 402.764 1767.19 402.573C1756.87 402.06 1747.55 402.046 1741.18 396.868C1739.1 395.182 1736.95 391.386 1739.24 389.377C1740.17 388.568 1741.92 388.074 1743.78 387.615C1748.92 386.344 1752.7 381.805 1756.24 377.869Z" fill="white"/>
<path d="M1926.57 303.241C1929.43 293.603 1941.31 264.03 1968.89 272.619C1975.45 274.66 1983.94 277.348 1989.73 280.274C2003 286.974 2033.24 266.291 2042.42 276.021C2051.84 286.015 2064.97 293.558 2058.72 306.36C2057.05 309.778 2055.15 313.39 2051.81 316.284C2049.38 318.388 2044.82 319.78 2043.5 322.381C2041.98 325.37 2043.3 329.464 2043.17 332.588C2042.65 345.452 1997.14 344.87 1984.87 345.206C1975.16 345.472 1957.07 347.475 1949.89 341.52C1948.6 340.451 1945.41 334.647 1947.24 333.015C1937.45 333.428 1911.52 333.271 1908.65 327.201C1904.19 317.765 1915.18 308.226 1926.57 303.241Z" fill="white"/>
<path d="M1628.42 458.17C1626.5 457.198 1624.78 456.602 1623.22 456.321C1608.19 453.621 1594.35 482.016 1606.53 491.217C1612.8 495.955 1615.86 505.132 1622.26 508.689C1629.47 512.693 1653.14 505.628 1653.72 493.772C1654.25 493.377 1670.64 505.548 1670.93 505.722C1679.11 510.72 1718.34 529.021 1721.08 505.722C1721.41 502.896 1721.03 499.706 1719.59 497.316C1719.35 496.911 1715.41 492.877 1716.03 492.371C1717.99 490.787 1726.86 493.36 1729.16 493.278C1735.25 493.059 1741.63 491.477 1746.89 487.921C1750.65 485.379 1749.75 476.196 1747.49 472.757C1741.32 463.373 1727.53 454.872 1718.11 450.835C1695.75 441.247 1682.68 465.364 1664.1 475.559C1658.23 478.78 1653.22 472.197 1648.08 469.46C1641.42 465.919 1635.13 461.569 1628.42 458.17Z" fill="white"/>
<path d="M1451.74 451.101C1430.25 447.795 1427.41 453.321 1415.94 459.41C1406.56 464.391 1390.07 477.274 1398.5 483.726C1402.02 486.418 1404.95 489.127 1408.68 491.525C1414.27 495.118 1420.22 502.615 1424.84 507.462C1432.16 515.153 1442.32 512.607 1451.74 510.514C1458.35 509.045 1468.28 503.696 1472.88 509.61C1475.57 513.07 1479.91 512.859 1483.91 512.663L1483.95 512.661C1497.34 512.008 1533.45 507.282 1532.78 488.699C1532.37 477.221 1528.82 465.582 1522.5 456.486C1511.14 440.168 1501.14 452.994 1486.33 461.459C1480.32 464.895 1457.34 451.963 1451.74 451.101Z" fill="white"/>
<path d="M1401.53 603.561L1398.75 626.512C1398.4 629.39 1398.57 632.308 1399.26 635.126C1401.38 643.909 1408.21 651.02 1417.23 651.679C1424.03 652.176 1431.24 651.842 1435.93 649.418C1446.71 643.852 1448.5 646.635 1457.48 638.286C1466.46 629.937 1467.36 630.864 1471.85 622.515C1474.99 616.676 1497.57 623.175 1512.6 628.621C1516.54 630.049 1520.68 630.864 1524.87 630.864C1531.84 630.864 1538.63 628.677 1544.29 624.61L1552.83 618.471C1555.08 616.853 1557.01 614.826 1558.52 612.495L1561.38 608.059C1564.76 602.825 1564.46 596.03 1560.65 591.104C1557.87 587.512 1553.58 585.409 1549.04 585.409H1527.43C1518.04 585.409 1508.79 583.161 1500.46 578.855L1495.64 576.366C1487.08 571.945 1477.59 569.639 1467.96 569.639C1461.03 569.639 1454.14 570.835 1447.61 573.176L1417.02 584.142C1414.68 584.981 1412.49 586.185 1410.52 587.71C1405.52 591.58 1402.29 597.288 1401.53 603.561Z" fill="white"/>
<path d="M1925.02 594.279H1989.21C1990.32 594.279 1991.21 593.383 1991.21 592.279V586.052C1991.21 584.982 1990.37 584.101 1989.3 584.054L1919.84 581.015C1918.27 580.946 1917.24 582.634 1918.01 584.001L1923.28 593.267C1923.63 593.892 1924.3 594.279 1925.02 594.279Z" fill="#FDE836"/>
<path d="M2319.76 587.568H2255.57C2254.46 587.568 2253.57 588.464 2253.57 589.568V595.795C2253.57 596.865 2254.41 597.746 2255.48 597.793L2324.94 600.832C2326.51 600.901 2327.54 599.213 2326.76 597.846L2321.5 588.58C2321.14 587.955 2320.48 587.568 2319.76 587.568Z" fill="#FDE836"/>
<ellipse rx="120.836" ry="121.718" transform="matrix(0.862848 0.505463 0.494556 -0.869146 2118.18 584.8)" fill="#FFF281"/>
<path d="M2037.71 537.664C2049.5 516.959 2067.45 497.709 2092.29 490.511C2137.54 477.398 2215.55 500.788 2178.37 479.01C2120.79 445.277 2047.16 465.295 2013.91 523.722C1980.67 582.148 2000.4 656.858 2057.98 690.59C2092.78 710.973 2045.41 676.435 2033.69 634.133C2026.02 606.427 2024.56 560.786 2037.71 537.664Z" fill="#FDE836"/>
<path d="M2120.86 782.202V717.005C2120.86 715.901 2119.96 715.005 2118.86 715.005H2112.78C2111.71 715.005 2110.83 715.85 2110.78 716.92L2107.79 787.425C2107.72 789.006 2109.43 790.035 2110.8 789.236L2119.87 783.929C2120.48 783.57 2120.86 782.913 2120.86 782.202Z" fill="#FDE836"/>
<path d="M2107.63 388.775V453.972C2107.63 455.077 2108.52 455.972 2109.63 455.972H2115.71C2116.78 455.972 2117.66 455.128 2117.7 454.057L2120.7 383.553C2120.77 381.972 2119.06 380.942 2117.69 381.741L2108.62 387.049C2108.01 387.407 2107.63 388.065 2107.63 388.775Z" fill="#FDE836"/>
<path d="M1959.92 730.083L2005.34 684.003C2006.11 683.217 2006.11 681.941 2005.34 681.155L2001.02 676.773C2000.27 676.01 1999.05 675.983 1998.27 676.713L1947.03 724.407C1945.87 725.481 1946.34 727.425 1947.86 727.837L1958 730.604C1958.69 730.791 1959.42 730.592 1959.92 730.083Z" fill="#FDE836"/>
<path d="M2267.89 733.176L2221.69 687.909C2220.9 687.136 2219.65 687.158 2218.88 687.958L2214.64 692.417C2213.9 693.193 2213.9 694.421 2214.63 695.204L2262.52 746.356C2263.6 747.508 2265.51 747 2265.89 745.459L2268.44 735.115C2268.61 734.416 2268.4 733.677 2267.89 733.176Z" fill="#FDE836"/>
<path d="M2267.08 445.054L2221.67 491.133C2220.89 491.92 2220.89 493.195 2221.67 493.982L2225.99 498.364C2226.74 499.127 2227.95 499.153 2228.73 498.424L2279.98 450.729C2281.13 449.655 2280.66 447.712 2279.15 447.299L2269 444.533C2268.32 444.346 2267.58 444.545 2267.08 445.054Z" fill="#FDE836"/>
<path d="M1959.92 454.544L2005.34 500.623C2006.11 501.41 2007.37 501.41 2008.14 500.623L2012.46 496.241C2013.21 495.478 2013.24 494.25 2012.52 493.455L1965.52 441.461C1964.46 440.29 1962.54 440.766 1962.13 442.3L1959.41 452.597C1959.22 453.292 1959.42 454.035 1959.92 454.544Z" fill="#FDE836"/>
<path d="M2172 289.358L2159 294.874C2152.62 297.583 2147.35 302.394 2144.07 308.509C2137.43 320.91 2140.16 336.25 2150.68 345.596L2159.29 353.254C2167.53 360.579 2178.17 364.625 2189.2 364.625H2191.75C2197.46 364.625 2203.05 362.99 2207.86 359.913L2221.84 350.965C2225.49 348.63 2230.16 348.605 2233.83 350.9C2235.61 352.014 2237.67 352.605 2239.77 352.605H2249.87C2259.68 352.605 2270.45 350.302 2275.46 341.868C2276.4 340.29 2276.99 338.728 2276.99 337.307C2276.99 326.356 2284.41 315.718 2280.45 305.508C2279.56 303.189 2278.42 300.967 2276.99 299.06C2266.33 284.852 2245.97 283.762 2228.21 283.762H2217.98H2199.53C2190.07 283.762 2180.71 285.665 2172 289.358Z" fill="white"/>
<path d="M1803.76 191.133L1796.22 194.681C1783.55 200.645 1775.46 213.391 1775.46 227.397C1775.46 235.913 1780.01 243.779 1787.4 248.019L1789.04 248.96C1794.88 252.313 1801.76 253.365 1808.34 251.911L1818.67 249.627C1821.33 249.039 1824.04 248.743 1826.76 248.743H1827.58C1843.08 248.743 1856.87 238.92 1861.93 224.276L1863.14 220.791C1864.09 218.043 1865.63 215.539 1867.66 213.455C1873.01 207.959 1874.81 199.184 1868.28 195.18C1865.63 193.558 1862.39 192.297 1858.59 191.691C1855.23 191.154 1851.81 191.778 1848.54 192.728L1842.15 194.583C1836.22 196.304 1829.84 195.456 1824.57 192.247C1818.26 188.405 1810.44 187.987 1803.76 191.133Z" fill="white"/>
<path d="M1827.43 299.843H1819.96C1816.03 299.843 1812.24 301.237 1809.25 303.776C1802.41 309.588 1801.46 319.798 1807.1 326.776L1808.32 328.282C1811.84 332.627 1817.13 335.186 1822.71 334.989C1834.75 334.564 1849.44 333.215 1849.44 329.92C1849.44 324.689 1873.15 327.305 1886.69 299.843C1887.61 297.253 1888.48 295.144 1889.3 293.437C1891.24 289.394 1895.16 281.941 1895.16 277.457C1895.16 273.932 1892.3 271.073 1888.78 271.073H1880.2C1875.74 271.073 1871.5 273.071 1868.66 276.519L1854.83 293.309C1851.42 297.446 1846.34 299.843 1840.97 299.843H1827.43Z" fill="white"/>
<path d="M1507.33 246.277L1503.21 242.946C1499.68 240.09 1496.75 236.558 1494.6 232.557C1487.48 219.319 1489.85 202.984 1500.44 192.315L1503.94 188.787C1511.43 181.243 1521.61 177 1532.24 177H1535.5C1539.96 177 1544.36 178.109 1548.29 180.227L1574.43 194.323C1580.57 197.632 1588.02 193.187 1588.02 186.213C1588.02 181.125 1592.14 177 1597.23 177H1625.47C1633.32 177 1640.97 179.464 1647.34 184.043L1658.65 192.176C1666.92 198.122 1671.83 207.687 1671.83 217.874C1671.83 221.006 1671.36 224.12 1670.45 227.116L1670.12 228.181C1665.1 244.633 1649.92 255.872 1632.71 255.872H1614.68H1581.11C1576.41 255.872 1571.72 256.249 1567.08 256.999L1555 258.952C1538.03 261.697 1520.69 257.088 1507.33 246.277Z" fill="white"/>
</g>
<defs>
<clipPath id="clip0">
<rect width="1282" height="752" fill="white" transform="translate(1117 177)"/>
</clipPath>
</defs>
</svg>
