<svg width="301" height="301" viewBox="0 0 301 301" fill="none" xmlns="http://www.w3.org/2000/svg">
<g clip-path="url(#clip0)">
<path d="M192.294 60.9327C192.294 79.168 165.853 79.2121 143.911 79.2121C121.969 79.2121 104.182 64.4295 104.182 46.1942C104.182 27.9589 121.969 13.1763 143.911 13.1763C165.853 13.1763 192.294 42.6974 192.294 60.9327Z" fill="#FFF281"/>
<path d="M192.294 60.9327C192.294 79.168 165.853 79.2121 143.911 79.2121C121.969 79.2121 104.182 64.4295 104.182 46.1942C104.182 27.9589 121.969 13.1763 143.911 13.1763C165.853 13.1763 192.294 42.6974 192.294 60.9327Z" stroke="#FFF281"/>
<path d="M192.294 60.9327C192.294 79.168 165.853 79.2121 143.911 79.2121C121.969 79.2121 180.824 88.5184 180.824 70.2831C180.824 52.0478 121.969 13.1763 143.911 13.1763C165.853 13.1763 192.294 42.6974 192.294 60.9327Z" fill="#FEEE65"/>
<path d="M175.427 85.5256L118.204 83.5952L113.781 126.032L183.197 130.694L175.427 85.5256Z" fill="#FFA673"/>
<path d="M201.88 150.341L111.913 147.506L108.453 283.861L216.033 281.448L201.88 150.341Z" fill="#FFA673"/>
<path d="M145.732 276.355L142.57 275.943V283.168L145.732 284.965H153.999V277.388L145.732 276.355Z" fill="#FF8165"/>
<path d="M168.658 222.946L152.581 237H192.294L168.658 222.946Z" fill="#FFF281"/>
<path d="M181.322 133.595L173.819 86.0012L189.896 57.4741L199.99 133.595H181.322Z" fill="#F2C97C"/>
<path d="M139.282 275.415V248.929L144.874 245.838H200.643V275.415H139.282Z" fill="#F9D591"/>
<path d="M173.882 87.4272L173.882 68.4091L186.794 36.3701L189.61 59.3146L173.882 87.4272Z" fill="#E47057"/>
<path d="M174.075 68.1726L118.204 65.4546V83.5952L174.075 86.6385V68.1726Z" fill="#EC795F"/>
<path d="M197.788 129.19L116.002 125.738L113.8 148.065L202.108 151.142L197.788 129.19Z" fill="#FF8165"/>
<path d="M61.1356 46.875L76.0915 47.9964L62.4199 274.856L44.4945 274.856L61.1356 46.875Z" fill="#EC795F"/>
<path d="M75.2732 28.9429L120.721 31.391L108.447 276.364H62.0073L75.2732 28.9429Z" fill="#FF8165"/>
<path d="M73.7944 56.7998L119.353 58.0141L109.026 283.444H62.3552L73.7944 56.7998Z" fill="#F9D591"/>
<path d="M44.0981 280.713L44.4675 274.733L62.5669 273.58V283.672H42.4438V281.803L44.0981 280.713Z" fill="#EC795F"/>
<path d="M144.297 278.38V244.145L148.963 241.936V278.38H144.297Z" fill="#FF8165"/>
<path d="M154.958 285.263L155.464 275.815H151.271H148.032L148.245 288.077L154.958 285.263Z" fill="#EC795F"/>
<path d="M201.88 275.973L154.435 275.818L148.032 288.076L210.177 286.395L201.88 275.973Z" fill="#FF8165"/>
<path d="M225.537 64.5984L235.917 60.5581L251.729 281.516H223.149L225.537 64.5984Z" fill="#EC795F"/>
<path d="M135.549 275.671L142.57 275.942V283.039L135.549 283.444L135.549 275.671Z" fill="#EC795F"/>
<path d="M186.68 36.3164L228.301 38.9416L244.344 279.514H216.033L186.68 36.3164Z" fill="#FF8165"/>
<path d="M189.544 59.9282L230.512 62.7896L244.344 281.516L215.334 281.298L189.544 59.9282Z" fill="#F9D591"/>
<path d="M135.549 277.272V245.536L139.437 243.489V277.272H135.549Z" fill="#E47057"/>
<path d="M200.871 280.412V244.86L204.759 242.567V280.412H200.871Z" fill="#FF8165"/>
<path d="M135.549 241.937L144.547 236.417H204.76V245.731L144.547 246.36L135.549 250.561V241.937Z" fill="#FF8165"/>
<path d="M144.547 236.417L135.549 241.937V250.561L144.547 246.36V236.417Z" fill="#E47057"/>
<path d="M135.522 285.333V275.815H142.514H148.657L148.253 288.169L135.522 285.333Z" fill="#E47057"/>
<path d="M300.552 204.504H264.366L266.73 281.489L300.552 278.481V204.504Z" fill="#E47057"/>
<path d="M264.508 204.392L244.123 213.689V281.497H266.98L264.508 204.392Z" fill="#EC795F"/>
<path d="M49.1428 223.578L0.483887 218.295V283.444H44.0208L49.1428 223.578Z" fill="#E47057"/>
</g>
<defs>
<clipPath id="clip0">
<rect width="300" height="300" fill="white" transform="translate(0.483887 0.672363)"/>
</clipPath>
</defs>
</svg>
