<svg width="455" height="300" viewBox="0 0 455 300" fill="none" xmlns="http://www.w3.org/2000/svg">
<g clip-path="url(#clip0)">
<rect x="192.967" y="163.149" width="17.9061" height="132.262" fill="#C4C4C4"/>
<path d="M452.107 185.466L264.093 166.351V228.179L452.107 239.828V185.466Z" fill="#FFF281"/>
<path d="M303.311 221.033H265.063L262.033 288.897L452.893 257.424V186.117L303.311 199.887V221.033Z" fill="#FECC6C"/>
<path d="M265.365 172.397V164.368L449.743 185.358V194.709L265.365 172.397Z" fill="#F8E438"/>
<path d="M302.2 229.236H265.173V221.716H295.323L302.2 199.153L451.891 186.117V194.139L308.018 206.173L302.2 229.236Z" fill="#F6BE52"/>
<path d="M2.10675 185.466L190.12 166.351V228.179L2.10675 239.828V185.466Z" fill="#FFF281"/>
<path d="M151.69 220.762H189.937L192.967 288.627L2.10681 257.153V185.846L151.69 199.616V220.762Z" fill="#FECC6C"/>
<path d="M188.848 172.397V164.368L4.47038 185.358V194.709L188.848 172.397Z" fill="#F8E438"/>
<path d="M151.169 229.236H187.986V221.716H158.006L151.169 199.153L2.32207 186.117V194.139L145.383 206.173L151.169 229.236Z" fill="#F6BE52"/>
<ellipse cx="225.81" cy="157.622" rx="28.8601" ry="34.7703" fill="#F8E438"/>
<path d="M258.338 156.534H193.112L185.051 162.767L172.2 170.057H282.447L266.818 162.56L258.338 156.534Z" fill="#F8E438"/>
<rect x="192.967" y="163.149" width="69.0663" height="136.85" fill="#FFF281"/>
<path d="M243.63 162.474H264.955L265.711 300H244.127L243.63 162.474Z" fill="#FF67F9"/>
<rect x="187.223" y="162.217" width="21.584" height="137.783" fill="#FF67F9"/>
<rect x="208.807" y="209.407" width="35.0364" height="14.6583" fill="#F6BE52"/>
</g>
<defs>
<clipPath id="clip0">
<rect width="455" height="300" fill="white"/>
</clipPath>
</defs>
</svg>
