<svg width="371" height="243" viewBox="0 0 371 243" fill="none" xmlns="http://www.w3.org/2000/svg">
<g clip-path="url(#clip0)">
<path d="M26.769 159.956C24.3675 159.956 23.7855 157.513 20.7634 157.513C18.8818 157.513 14.944 158.512 14.944 160.223L16.9264 173.167H27.8863L30.1675 158.859C29.8881 159.666 28.6195 159.956 26.769 159.956Z" fill="#FFE4AD"/>
<path d="M324.841 241.14C329.567 234.626 331.538 229.448 331.538 227.408C331.538 207.216 258.341 185.661 184.889 181.703C184.878 171.546 132.34 103.942 101.536 103.942C79.6244 103.942 64.5948 116.968 64.5948 147.002C64.5948 185.024 80.6719 217.174 103.589 241.14H324.841Z" fill="#E0E0E0"/>
<path d="M323.639 166.212C326.618 166.212 328.193 139.584 328.193 136.646C328.193 133.707 321.381 105.889 300.73 105.889C292.944 105.889 287.411 113.466 287.411 122.939C287.411 136.041 306.565 145.775 309.525 148.724C314.627 153.794 317.335 166.212 323.639 166.212Z" fill="#FE5A36"/>
<path d="M327.383 179.398C325.536 179.398 320.531 166.48 320.531 155.805C320.531 143.365 332.694 128.142 334.323 122.649C337.206 112.909 341.954 93.8971 356.437 93.8971C364.662 93.8971 369.527 102.321 369.527 111.07C369.527 119.494 360.72 126.785 352.798 135.158C345.039 143.365 345.935 150.284 341.617 160.325C337.194 170.583 329.967 179.398 327.383 179.398Z" fill="#FFD98E"/>
<path d="M327.204 176.63C324.523 161.87 341.496 117.71 354.388 105.346" stroke="#FE5A36" stroke-width="2.38" stroke-linecap="round" stroke-linejoin="round"/>
<path d="M304.92 116.429C307.515 118.427 322.638 141.936 323.767 153.265" stroke="#FFD98E" stroke-width="2.38" stroke-linecap="round" stroke-linejoin="round"/>
<path d="M328.349 173.89H349.089L338.719 241.14H328.349H328.066H317.695L307.329 173.89H328.066" fill="#C9C9C9"/>
<path d="M153.5 89.6962C153.5 120.41 163.587 120.261 163.587 124.723C163.587 133.49 158.888 132.466 158.888 132.466C158.888 132.466 110.498 128.066 153.5 89.6962Z" fill="black"/>
<path d="M45.2628 30.0131V1.96997" stroke="#858585" stroke-width="2.38" stroke-linecap="round" stroke-linejoin="round"/>
<path d="M240.573 30.0131V1.96997" stroke="#858585" stroke-width="2.38" stroke-linecap="round" stroke-linejoin="round"/>
<path d="M45.2631 58.675C48.927 58.675 51.8972 55.9047 51.8972 52.4874C51.8972 49.0701 48.927 46.2998 45.2631 46.2998C41.5992 46.2998 38.629 49.0701 38.629 52.4874C38.629 55.9047 41.5992 58.675 45.2631 58.675Z" fill="#FFE4AD"/>
<path d="M240.573 58.675C244.237 58.675 247.207 55.9047 247.207 52.4874C247.207 49.0701 244.237 46.2998 240.573 46.2998C236.909 46.2998 233.939 49.0701 233.939 52.4874C233.939 55.9047 236.909 58.675 240.573 58.675Z" fill="#FFE4AD"/>
<path d="M329.944 209.655C327.418 205.552 236.058 179.3 225.528 178.898C205.742 175.772 192.719 185.85 187.923 194.639C206.348 198.5 228.271 204.148 233.854 206.294H235.22C235.995 206.254 236.876 206.247 237.889 206.272C244.837 206.196 250.633 206.044 253.76 205.871C263.25 209.171 325.059 221.926 326.58 221.155C328.101 220.384 331.065 211.472 329.944 209.655Z" fill="#5FC5D1"/>
<path d="M164.297 190.785C169.907 191.031 181.185 193.13 193.122 195.746C200.408 189.135 205.898 180.114 205.37 169.331C194.119 145.145 149.116 113.878 130.3 113.893C127.472 116.064 126.851 131.887 124.705 141.104C123.93 144.483 127.642 154.253 133.241 165.322C146.067 174.39 158.369 184.793 164.297 190.785Z" fill="#FFD98E"/>
<path d="M328.663 212.188L336.682 214.11L334.215 221.64L326.265 220.305L328.663 212.188Z" fill="#FECC6C"/>
<path d="M142.493 109.276C142.346 111.027 142.443 118.351 143.382 121.897C140.716 121.853 124.81 108.215 142.493 109.276Z" fill="#FECC6C"/>
<path d="M138.769 111.103C146.536 111.103 152.832 103.408 152.832 93.9151C152.832 84.4226 146.536 76.7274 138.769 76.7274C131.002 76.7274 124.705 84.4226 124.705 93.9151C124.705 103.408 131.002 111.103 138.769 111.103Z" fill="#FECC6C"/>
<path d="M137.896 72.0234C119.561 72.0234 112.291 96.7774 112.291 110.379C112.291 122.57 117.198 125.834 119.437 126.832C121.675 127.831 127.324 128.016 130.928 128.83C135.545 129.875 138.051 133.827 142.319 133.827C145.632 133.827 147.583 130.827 147.583 128.399C147.583 118.561 129.935 110.307 129.935 95.6665C133.318 94.5809 145.981 85.9799 145.981 82.5568C145.981 84.8798 152.46 91.1904 153.554 91.6391C154.035 90.1592 151.385 72.0234 137.896 72.0234Z" fill="black"/>
<path d="M208.363 138.593L187.921 137.497L185.823 171.537L206.265 172.633L208.363 138.593Z" fill="#E0E0E0"/>
<path d="M225.016 161.468L211.023 171.546L213.121 137.503L227.115 127.426L225.016 161.468Z" fill="#C9C9C9"/>
<path d="M189.184 135.343L209.688 138.296" stroke="#D3D3D3" stroke-width="2.38" stroke-linecap="round" stroke-linejoin="round"/>
<path d="M220.617 126.818L210.65 138.296" stroke="#D3D3D3" stroke-width="2.38" stroke-linecap="round" stroke-linejoin="round"/>
<path d="M223.286 127.824L211.461 137.984" stroke="#D3D3D3" stroke-width="2.38" stroke-linecap="round" stroke-linejoin="round"/>
<path d="M286.919 210.582L290.86 215.984L296.462 212.764L293.138 207.539L286.919 210.582Z" fill="#FECC6C"/>
<path d="M45.2634 30.0131C38.5215 30.014 32.0561 32.5126 27.2892 36.9594C22.5223 41.4061 19.8444 47.4367 19.8444 53.7249H70.6902C70.6902 50.6107 70.0325 47.527 68.7546 44.6499C67.4768 41.7728 65.6038 39.1587 63.2427 36.9568C60.8815 34.7549 58.0784 33.0084 54.9935 31.817C51.9086 30.6256 48.6023 30.0126 45.2634 30.0131Z" fill="#FE5A36"/>
<path d="M240.573 30.0131C237.235 30.0131 233.929 30.6264 230.845 31.8181C227.76 33.0098 224.958 34.7564 222.598 36.9583C220.237 39.1602 218.365 41.7742 217.088 44.651C215.811 47.5278 215.153 50.6112 215.154 53.7249H265.977C265.977 47.4392 263.301 41.4108 258.537 36.9645C253.774 32.5182 247.312 30.0179 240.573 30.0131Z" fill="#FE5A36"/>
<path d="M1.319 173.89H79.2366" stroke="#858585" stroke-width="2.38" stroke-linecap="round" stroke-linejoin="round"/>
<path d="M40.278 173.89V241.14" stroke="#858585" stroke-width="2.38" stroke-linecap="round" stroke-linejoin="round"/>
<path d="M60.7698 164.128H43.0245V173.167H60.7698V164.128Z" stroke="#FE5A36" stroke-width="2.38" stroke-linecap="round" stroke-linejoin="round"/>
<path d="M128.771 100.747C130.793 100.747 132.433 99.2175 132.433 97.331C132.433 95.4445 130.793 93.9152 128.771 93.9152C126.748 93.9152 125.109 95.4445 125.109 97.331C125.109 99.2175 126.748 100.747 128.771 100.747Z" fill="#FECC6C"/>
<path d="M211.022 171.546L206.258 172.642L208.357 138.603L213.121 137.503L211.022 171.546Z" fill="#D3D3D3"/>
<path d="M289.751 215.695L292.645 223.159L316.904 217.417L315.98 213.05L296.28 211.74L289.751 215.695Z" fill="black"/>
<path d="M333.768 221.227L341.454 224.643L354.388 204.655L350.443 202.154L335.436 214.139L333.768 221.227Z" fill="black"/>
<path d="M249.857 133.827C231.095 137.807 198.673 170.012 182.654 193.56C194.266 195.847 208.26 199.144 218.87 201.919C235.013 190.203 246.803 171.524 248.549 169.295C252.956 177.665 284.272 211.74 286.569 211.74C288.866 211.74 292.602 210.22 294.072 207.633C292.753 200.331 259.804 132.503 249.857 133.827Z" fill="#6BD5E1"/>
<path d="M144.375 173.605C158.912 172.371 187.124 167.536 189.537 167.059C192.571 166.462 195.325 157.629 192.66 152.4C191.741 150.859 190.72 150.819 189.944 150.989C189.168 151.159 187.318 157.524 185.429 157.864C183.539 158.204 148.615 160.151 145.663 160.274C145.275 158.559 141.725 146.133 140.871 145.153C140.018 144.172 121.512 152.853 121.512 152.853C122.364 155.097 123.359 157.291 124.492 159.424C131.176 163.697 138.086 168.712 144.375 173.605Z" fill="#FECC6C"/>
<path d="M119.072 119.501C125.14 117.497 138.792 124.621 142.858 144.812C140.53 147.848 127.728 154.485 120.291 154.387C117.039 151.706 106.165 123.749 119.072 119.501Z" fill="#FFE4AD"/>
<path d="M31.277 151.886L27.8863 173.167H16.9265L13.6676 151.886" stroke="#FE5A36" stroke-width="2.38" stroke-linecap="round" stroke-linejoin="round"/>
</g>
<defs>
<clipPath id="clip0">
<rect width="370" height="243" fill="white" transform="translate(0.0260315)"/>
</clipPath>
</defs>
</svg>
