<svg width="708" height="573" viewBox="0 0 708 573" fill="none" xmlns="http://www.w3.org/2000/svg">
<path fill-rule="evenodd" clip-rule="evenodd" d="M1.16723 336.672C9.81679 266.993 97.0744 252.781 136.304 198.036C172.224 147.909 163.435 51.8636 218.292 33.6743C273.532 15.3578 313.55 99.5304 367.802 121.276C419.557 142.021 484.307 115.78 525.446 156.791C568.955 200.163 590.049 271.592 583.876 336.672C577.933 399.327 535.51 448.679 493.778 490.633C458.747 525.849 413.452 539.343 368.211 553.484C325.128 566.951 282.429 578.166 238.238 570.51C187.153 561.659 136.879 545.024 97.9922 506.667C51.9003 461.203 -7.31747 405.023 1.16723 336.672Z" fill="#ADF0FF"/>
<path d="M372.38 460.063L370.064 450.405C368.016 441.864 374.49 433.655 383.273 433.655H387.764C392.785 433.655 396.856 429.584 396.856 424.562C396.856 421.845 398.072 419.269 400.17 417.542L413.629 406.463C423.656 398.209 436.704 394.576 449.554 396.46L466.552 398.953C478.155 400.654 489.278 404.743 499.219 410.963L501.261 412.24L506.259 414.585C513.654 418.054 518.376 425.486 518.376 433.655V435.481C518.376 442.963 515.832 450.222 511.161 456.067L507.074 461.18C503.4 465.777 497.834 468.454 491.949 468.454C486.942 468.454 482.13 466.514 478.522 463.042L477.761 462.309C469.003 453.88 455.066 454.159 446.652 462.932L446.043 463.567C442.984 466.756 439.067 468.991 434.765 470L410.964 475.584C408.413 476.182 405.802 476.484 403.183 476.484H393.204C383.301 476.484 374.689 469.693 372.38 460.063Z" fill="white"/>
<path d="M523.472 475.084C514.636 477.911 514.634 482.496 512.134 488.976C511.712 489.965 510.312 491.276 508.625 492.681C503.009 497.355 500.98 503.913 501.696 511.184C502.178 516.278 503.747 520.749 509.4 523.533C516.792 527.172 522.898 525.342 529.394 521.491C530.82 520.646 542.991 511.564 544.103 512.279L561.804 525.624C569.546 530.591 579.791 530.209 588.547 526.421C596.569 522.951 605.065 519.225 612.171 514.57C619.376 509.849 617.618 513.297 623.314 516.761C640.474 527.198 652.307 512.223 661.9 502.578C664.897 499.564 663.443 491.505 661.9 488.976C656.634 480.348 645.529 468.428 632.674 466.221C619.564 463.97 601.93 466.527 590.84 472.345C582.109 476.926 572.738 486.074 560.722 482.204C551.237 479.15 547.107 473.74 536.08 473.74C531.603 473.74 527.665 473.743 523.472 475.084Z" fill="white"/>
<path d="M657.372 427.427C662.393 427.427 666.428 432.955 672.822 432.955H673.989C683.364 432.955 692.643 431.075 701.278 427.427C720.078 418.963 688.977 392.089 670.997 381.999C666.448 379.445 661.134 377.402 653.838 376.415C639.902 374.528 627.309 376.833 624.149 388.26C622.073 395.771 624.124 397.42 613.748 397.42C609.236 397.42 604.622 397.212 600.116 397.42C592.712 397.76 581.939 408.714 581.939 413.766C581.939 418.781 592.015 424.623 595.673 427.743C602.216 433.325 613.242 441.483 623.644 441.483C631.259 441.483 636.911 440.698 643.74 438.325C649.141 436.447 651.331 427.427 657.372 427.427Z" fill="white"/>
<path d="M162.873 474.281L230.947 240.51M162.873 474.281L264.409 240.51M162.873 474.281L297.871 240.51M162.873 474.281L539.538 229.209M162.873 474.281L509.794 225.358M162.873 474.281L472.615 225.358" stroke="black"/>
<path d="M72.1074 162.592V162.592C77.7099 160.298 83.6691 158.996 89.718 158.746L145.643 156.429L275.617 167.224C297.04 169.004 318.594 168.475 339.904 165.648L409.387 156.43L447.862 156.429L557.316 242.652L497.449 264.514C457.2 279.212 413.537 281.847 371.812 272.096L366.708 270.903C324.192 260.967 279.611 264.916 239.504 282.17V282.17L72.1074 162.592Z" fill="#FFE278"/>
<path d="M78.6221 160.443L101.455 155.742C129.706 149.925 158.648 148.212 187.387 150.658L269.395 157.635C291.333 159.501 313.41 158.947 335.226 155.982L401.531 146.971L439.092 146.971L545.946 233.193L487.411 255.089C448.217 269.75 405.539 272.378 364.842 262.636L360.03 261.484C318.468 251.534 274.791 255.478 235.684 272.712V272.712L78.6221 160.443Z" fill="#FDFF8B"/>
<path d="M117.757 478.019L181.072 460.61C198.346 455.861 216.179 453.454 234.094 453.454H306.315L268.241 470.247C248.498 478.954 227.476 484.41 205.989 486.401L163.204 490.366C147.062 491.863 130.922 487.478 117.757 478.019V478.019Z" fill="#C8DDF4"/>
<path d="M65.6338 432.695L69.3616 431.973C97.8323 426.46 123.278 450.587 119.287 479.311V479.311L94.2372 459.487L65.6338 432.695Z" fill="#C8DDF4"/>
<path d="M68.1326 433.796C66.1939 433.011 66.1794 430.271 68.1097 429.466L103.606 414.657C118.827 408.307 134.774 403.864 151.085 401.43L207.671 392.983C208.685 392.832 209.721 392.996 210.639 393.453L263.742 419.908C264.756 420.413 265.725 421.003 266.638 421.672L302.372 447.834C306.272 450.69 304.252 456.868 299.418 456.868H234.204C217.618 456.868 201.097 458.931 185.021 463.01L120.084 479.485C119.313 479.68 118.526 479.229 118.306 478.464V478.464C113.296 461.06 100.564 446.924 83.7766 440.129L68.1326 433.796Z" fill="#EEF5FF"/>
<path d="M437.262 127.487C437.989 124.544 435.289 121.901 432.362 122.69V122.69C424.208 124.89 415.565 124.439 407.685 121.402L398.552 117.882C390.548 114.796 382.043 113.214 373.464 113.214H360.138C353.35 113.214 346.603 112.149 340.145 110.058V110.058C336.747 108.958 333.099 110.81 331.981 114.202L331.602 115.352C330.38 119.062 328.787 122.64 326.847 126.031L326.015 127.485C321.53 135.327 319.17 144.205 319.17 153.24V158.91C319.17 164.362 317.725 169.717 314.983 174.43V174.43C313.786 176.487 315.27 179.068 317.65 179.068H319.084C324.383 179.068 329.627 180.145 334.497 182.233L352.777 190.073C362.757 194.353 373.501 196.56 384.359 196.56H389.517C397.613 196.56 405.614 198.302 412.977 201.667V201.667C416.397 203.23 420.359 201.076 420.907 197.356L421.859 190.882C422.606 185.8 424.348 180.914 426.984 176.504V176.504C430.611 170.438 432.526 163.502 432.526 156.435V152.951C432.526 148.77 433.033 144.603 434.036 140.543L437.262 127.487Z" fill="#EEF5FF"/>
<path d="M405.544 196.231C403.084 194.755 400.313 193.874 397.452 193.656V193.656C377.878 192.171 358.666 187.57 340.542 180.026L333.825 177.229C329.49 175.425 324.659 175.203 320.178 176.603L312.283 179.068V179.068C322.069 179.068 331.753 181.057 340.746 184.914L352.777 190.073C362.756 194.353 373.501 196.56 384.359 196.56V196.56C395.854 196.56 407.213 199.033 417.668 203.811L419.812 204.792L405.544 196.231Z" fill="#C8DDF4"/>
<path d="M406.57 177.524L407.001 174.53C408.459 164.391 412.305 154.743 418.224 146.381V148.199C418.224 159.103 414.055 169.594 406.57 177.524Z" fill="#FEFDFE"/>
<path d="M387.938 120.344L413.722 130.706L387.205 122.27C384.418 121.383 381.51 120.931 378.586 120.931H351.444C350.733 120.931 350.158 120.355 350.158 119.645C350.158 118.935 350.733 118.359 351.444 118.359H377.676C381.192 118.359 384.676 119.033 387.938 120.344Z" fill="#C8DDF4"/>
<path d="M488.012 184.396C488.739 181.453 486.039 178.81 483.112 179.6V179.6C474.958 181.8 466.315 181.348 458.435 178.311L449.302 174.791C441.298 171.706 432.793 170.123 424.214 170.123H410.888C404.1 170.123 397.353 169.058 390.895 166.967V166.967C387.497 165.867 383.849 167.719 382.731 171.111L382.352 172.261C381.13 175.971 379.537 179.549 377.597 182.94L376.765 184.394C372.28 192.236 369.92 201.114 369.92 210.149V215.819C369.92 221.271 368.475 226.627 365.733 231.339V231.339C364.536 233.396 366.02 235.977 368.4 235.977H369.834C375.133 235.977 380.377 237.054 385.247 239.143L403.527 246.983C413.507 251.262 424.251 253.469 435.109 253.469H440.267C448.363 253.469 456.364 255.211 463.727 258.577V258.577C467.147 260.139 471.109 257.985 471.657 254.265L472.609 247.792C473.356 242.709 475.098 237.823 477.734 233.414V233.414C481.361 227.347 483.276 220.412 483.276 213.344V209.861C483.276 205.679 483.783 201.512 484.786 197.452L488.012 184.396Z" fill="#EEF5FF"/>
<path d="M456.294 253.14C453.834 251.664 451.063 250.783 448.202 250.566V250.566C428.628 249.08 409.416 244.479 391.292 236.935L384.575 234.139C380.24 232.334 375.409 232.113 370.928 233.512L363.033 235.977V235.977C372.819 235.977 382.503 237.966 391.496 241.823L403.527 246.983C413.506 251.262 424.251 253.469 435.109 253.469V253.469C446.604 253.469 457.963 255.942 468.418 260.721L470.562 261.701L456.294 253.14Z" fill="#C8DDF4"/>
<path d="M457.32 234.434L457.751 231.44C459.209 221.3 463.055 211.652 468.974 203.291V205.108C468.974 216.012 464.805 226.503 457.32 234.434Z" fill="#FEFDFE"/>
<path d="M438.688 177.253L464.472 187.616L437.955 179.179C435.168 178.292 432.26 177.841 429.336 177.841H402.194C401.483 177.841 400.908 177.265 400.908 176.554C400.908 175.844 401.483 175.268 402.194 175.268H428.426C431.942 175.268 435.426 175.942 438.688 177.253Z" fill="#C8DDF4"/>
<path d="M33.0564 106.694L77.6791 115.7L149.329 124.683L121.364 137.639L77.6791 141.664V141.664C61.0394 135.747 46.5484 124.991 36.0672 110.777L33.0564 106.694Z" fill="#3DD8FA"/>
<path d="M33.0563 106.689L58.5973 126.106L63.8776 129.382C77.2175 137.66 93.4081 139.991 108.541 135.812V135.812C116.252 133.682 123.42 129.934 129.569 124.816L150.182 107.659L152.959 106.832L184.127 124.188L144.719 137.961C136.347 140.887 127.647 142.773 118.815 143.577L103.423 144.978C86.8432 146.487 70.2885 141.838 56.9182 131.919V131.919V131.919C47.9869 124.757 40.067 116.419 33.3744 107.131L33.0563 106.689Z" fill="#37C2E1"/>
<path d="M150.03 107.644L159.361 105.158C181.061 99.3788 203.619 97.521 225.972 99.6724V99.6724C239.234 100.949 252.324 103.627 265.021 107.662L283.769 113.619C294.975 117.18 305.464 122.689 314.756 129.893L339.9 149.386L297.962 147.737C276.804 146.905 255.929 152.811 238.342 164.603L215.153 180.151L208.54 162.222C198.788 135.784 177.081 115.536 150.03 107.644V107.644Z" fill="#3DD8FA"/>
</svg>
