<svg width="343" height="267" viewBox="0 0 343 267" fill="none" xmlns="http://www.w3.org/2000/svg">
<g clip-path="url(#clip0)">
<path d="M293.647 248.218C275.12 265.623 225.873 257.769 182.202 250.162C138.531 242.555 100.516 235.237 77.671 212.649C54.8979 190.113 47.2828 152.247 58.5836 118.08C69.8005 83.864 100.013 53.338 141.455 36.0198C182.896 18.6483 235.573 14.4879 261.853 35.0031C288.189 55.4415 288.06 100.549 294.086 144.379C300.047 188.203 312.235 230.807 293.647 248.218Z" fill="#F2F2F2"/>
<path d="M211.851 130.481H168.077V134.298H211.851V130.481Z" fill="#FFD98E"/>
<path d="M202.185 125.678H164.129V130.485H202.185V125.678Z" fill="#6BD5E1"/>
<path d="M200.752 134.302H163.1V144.416H200.752V134.302Z" fill="#E0E0E0"/>
<path d="M274.289 93.1614C271.031 96.9318 270.036 100.929 272.182 103.039L272.147 103.112L304.502 77.9334" fill="#5FC5D1"/>
<path d="M42.0154 132.298C40.205 128.468 35.8448 112.143 21.0146 112.143C14.0207 112.143 2.91052 118.504 2.91052 128.938C2.91052 134.892 7.63284 142.356 12.0807 150.14C13.4262 149.122 15.0329 148.403 16.7641 148.044C18.4954 147.685 20.3001 147.697 22.0248 148.079C23.7496 148.461 25.3435 149.201 26.671 150.237C27.9986 151.273 29.0206 152.574 29.6502 154.03C30.2798 155.485 30.4985 157.052 30.2875 158.597C30.0765 160.142 29.4422 161.62 28.4384 162.905C27.4346 164.19 26.0911 165.244 24.5219 165.977C22.9528 166.711 21.2044 167.102 19.4253 167.118C26.625 202.814 44.0697 207.155 48.3118 207.155C52.5539 207.155 57.7755 163.968 57.7755 158.931C57.7755 153.893 49.5581 148.253 42.0154 132.298Z" fill="#FFD98E"/>
<path d="M86.7993 165.324C85.3992 165.322 84.017 165.049 82.751 164.526C81.4851 164.003 80.3665 163.242 79.4748 162.298C78.5832 161.354 77.9404 160.249 77.5921 159.063C77.2439 157.877 77.1988 156.638 77.4601 155.435C77.7213 154.232 78.2825 153.094 79.1037 152.102C79.9249 151.111 80.9859 150.289 82.2112 149.697C83.4366 149.104 84.7962 148.755 86.1932 148.674C87.5903 148.594 88.9906 148.783 90.2943 149.23C90.2105 142.209 86.2657 128.938 68.7714 128.938C59.2963 128.938 53.1447 140.816 51.6201 151.013C50.3586 159.441 41.196 173.325 41.196 184.603C41.196 199.717 52.7178 211.112 58.0652 211.112C69.3088 211.112 82.4581 185.643 87.8131 165.278C87.4763 165.309 87.1379 165.324 86.7993 165.324V165.324Z" fill="#6BD5E1"/>
<path d="M56.4606 207.838C55.6983 203.744 53.5792 177.886 66.4464 158.347" stroke="#FFD98E" stroke-width="2.19" stroke-linecap="round" stroke-linejoin="round"/>
<path d="M21.8913 126.344C35.3722 143.303 47.0465 172.182 48.8569 202.481" stroke="#6BD5E1" stroke-width="2.19" stroke-linecap="round" stroke-linejoin="round"/>
<path d="M53.1409 261.48H67.6242L84.3943 204.808H53.1409H21.8913L38.6614 261.48H53.1409Z" fill="#C9C9C9"/>
<path d="M268.298 144.416H67.8528V148.79H268.298V144.416Z" fill="#FE5A36"/>
<path d="M84.6306 261.479V148.65" stroke="#FE5A36" stroke-width="2" stroke-linecap="round" stroke-linejoin="round"/>
<path d="M118.35 261.479V148.65" stroke="#FE5A36" stroke-width="2" stroke-linecap="round" stroke-linejoin="round"/>
<path d="M84.6306 160.757H118.35" stroke="#FE5A36" stroke-width="2" stroke-linecap="round" stroke-linejoin="round"/>
<path d="M84.6306 253.846H118.35" stroke="#FE5A36" stroke-width="2" stroke-linecap="round" stroke-linejoin="round"/>
<path d="M217.804 261.479V148.65" stroke="#FE5A36" stroke-width="2" stroke-linecap="round" stroke-linejoin="round"/>
<path d="M251.524 261.479V148.65" stroke="#FE5A36" stroke-width="2" stroke-linecap="round" stroke-linejoin="round"/>
<path d="M217.804 160.757H251.524" stroke="#FE5A36" stroke-width="2" stroke-linecap="round" stroke-linejoin="round"/>
<path d="M217.804 253.846H251.524" stroke="#FE5A36" stroke-width="2" stroke-linecap="round" stroke-linejoin="round"/>
<path d="M130.28 138.802H93.3968V144.416H130.28V138.802Z" fill="#FFD98E"/>
<path d="M154.558 71.2296V68.1926C154.542 63.3678 152.344 58.7447 148.443 55.333C144.542 51.9213 139.257 49.9984 133.74 49.9844H132.658C127.142 49.9984 121.856 51.9213 117.955 55.333C114.055 58.7447 111.856 63.3678 111.84 68.1926V138.802" stroke="#FFD98E" stroke-width="3" stroke-linecap="round" stroke-linejoin="round"/>
<path d="M165.569 88.3677C165.569 88.2044 165.569 88.0344 165.569 87.8743V81.0071C165.561 78.4517 164.397 76.0031 162.331 74.1966C160.264 72.39 157.464 71.3724 154.543 71.3662V71.3662C151.625 71.3768 148.83 72.3963 146.768 74.2024C144.705 76.0085 143.544 78.4546 143.536 81.0071V87.8743C143.536 88.041 143.536 88.2077 143.536 88.3677H165.569Z" fill="#6BD5E1"/>
<path d="M157.92 88.4077C157.891 89.1699 157.524 89.8924 156.897 90.4225C156.27 90.9526 155.432 91.249 154.56 91.249C153.688 91.249 152.85 90.9526 152.223 90.4225C151.597 89.8924 151.23 89.1699 151.2 88.4077" fill="#FFD98E"/>
<path d="M160.34 134.302H200.741C202.273 134.303 203.742 134.833 204.828 135.778C205.914 136.723 206.529 138.006 206.538 139.346V139.346C206.533 140.685 205.922 141.969 204.839 142.917C203.756 143.864 202.288 144.398 200.756 144.403H160.355" stroke="black" stroke-width="2.09" stroke-linecap="round" stroke-linejoin="round"/>
<path d="M239.434 128.081H226.258V144.419H239.434V128.081Z" fill="#6BD5E1"/>
<path d="M239.434 131.738C240.105 131.722 240.772 131.824 241.397 132.037C242.022 132.25 242.592 132.571 243.073 132.98C243.553 133.389 243.936 133.878 244.197 134.419C244.458 134.959 244.592 135.54 244.592 136.127C244.592 136.714 244.458 137.294 244.197 137.835C243.936 138.375 243.553 138.865 243.073 139.274C242.592 139.683 242.022 140.004 241.397 140.217C240.772 140.43 240.105 140.532 239.434 140.516" stroke="black" stroke-width="2.19" stroke-linecap="round" stroke-linejoin="round"/>
<path d="M341.48 259.926H290.694V266.5H341.48V259.926Z" stroke="#FFD98E" stroke-width="3" stroke-linecap="round" stroke-linejoin="round"/>
<path d="M316.089 259.926V66.3825" stroke="#FFD98E" stroke-width="3" stroke-linecap="round" stroke-linejoin="round"/>
<path d="M316.089 115.093C309.949 115.076 304.067 112.935 299.725 109.137C295.384 105.34 292.936 100.195 292.916 94.8249V84.2673" stroke="#FFD98E" stroke-width="3" stroke-linecap="round" stroke-linejoin="round"/>
<path d="M339.22 66.3825V75.0832C339.2 80.4534 336.752 85.5985 332.411 89.3958C328.069 93.193 322.187 95.3341 316.047 95.3517" stroke="#FFD98E" stroke-width="3" stroke-linecap="round" stroke-linejoin="round"/>
<path d="M289.893 80.397C289.893 80.397 287.027 78.6335 285.114 78.6335C283.2 78.6335 274.358 85.0308 273.641 88.0844C272.925 91.138 276.149 98.4753 277.072 99.282L285.121 93.0081L289.893 80.3937" fill="#5FC5D1"/>
<path d="M339.22 66.3258C340.54 66.3258 341.61 65.39 341.61 64.2356C341.61 63.0813 340.54 62.1454 339.22 62.1454C337.9 62.1454 336.83 63.0813 336.83 64.2356C336.83 65.39 337.9 66.3258 339.22 66.3258Z" fill="#FFD98E"/>
<path d="M223.731 73.8164C236.826 73.8164 247.442 64.5315 247.442 53.078C247.442 41.6244 236.826 32.3395 223.731 32.3395C210.636 32.3395 200.021 41.6244 200.021 53.078C200.021 64.5315 210.636 73.8164 223.731 73.8164Z" fill="#FFD98E"/>
<path d="M223.731 53.078V38.2533" stroke="#6BD5E1" stroke-width="3" stroke-linecap="round" stroke-linejoin="round"/>
<path d="M223.731 53.078H234.681" stroke="#6BD5E1" stroke-width="3" stroke-linecap="round" stroke-linejoin="round"/>
<path d="M84.8059 38.53H0.052002V41.6203H84.8059V38.53Z" fill="#FE5A36"/>
<path d="M46.1394 0H37.6628V38.53H46.1394V0Z" fill="#E0E0E0"/>
<path d="M37.6628 4.80377H30.2916V38.5334H37.6628V4.80377Z" fill="#FFD98E"/>
<path d="M56.8362 6.15785L50.6443 9.70383L71.8544 38.0367L78.0462 34.4907L56.8362 6.15785Z" fill="#E0E0E0"/>
<path d="M50.7054 10.5443H46.1356V38.53H50.7054V10.5443Z" fill="#6BD5E1"/>
<path d="M15.2671 41.6203H10.8497V45.484H15.2671V41.6203Z" fill="#FE5A36"/>
<path d="M74.0082 41.6203H69.5908V45.484H74.0082V41.6203Z" fill="#FE5A36"/>
<path d="M283.749 93.9349C280.997 91.228 283.41 85.4175 289.142 80.9571C294.875 76.4967 301.747 75.0799 304.502 77.7835" fill="#6BD5E1"/>
</g>
<defs>
<clipPath id="clip0">
<rect width="342" height="267" fill="white" transform="translate(0.052002)"/>
</clipPath>
</defs>
</svg>
