<svg width="696" height="571" viewBox="0 0 696 571" fill="none" xmlns="http://www.w3.org/2000/svg">
<path fill-rule="evenodd" clip-rule="evenodd" d="M361.339 26.0377C417.723 35.4007 464.885 76.373 513.237 102.622C566.022 131.276 623.534 143.226 645.845 192.794C668.064 242.159 685.378 315.758 657.145 362.874C684.102 434.114 673.755 518.6 636.193 550.018C591.096 587.739 423.311 523.258 361.339 534.71C293.102 547.32 221.001 531.203 160.785 501.277C96.3259 469.243 31.5123 424.639 15.5718 362.874C0.00426483 302.554 21.7947 187.24 51.3225 130.774C77.4039 80.8989 107.801 57.1335 160.785 26.038C213.263 -4.76043 298.656 15.6286 361.339 26.0377Z" fill="#ADF0FF"/>
<path d="M457.136 461.097L126.08 265.262M457.136 461.097L147.84 235.731M457.136 461.097L178.925 222.52" stroke="black"/>
<path d="M587.509 445.587L366.426 195.369M587.509 445.587L421.12 177.326M587.509 445.587L465.664 163.793" stroke="black"/>
<path d="M567.107 462.151L584.815 448.074C587.434 445.992 590.921 445.358 594.105 446.384L648.485 463.909L657.913 457.517C659.528 456.422 659.421 454.01 657.716 453.062L657.442 451.366L653.312 449.643L593.346 433.698C590.587 432.965 587.645 433.446 585.263 435.02L564.575 448.693C560.108 451.646 559.349 457.897 562.98 461.832C564.06 463.003 565.86 463.142 567.107 462.151Z" fill="black"/>
<path d="M601.505 472.965L630.45 458.484L644.719 450.327C647.068 448.984 649.862 448.651 652.462 449.403L654.284 449.93L660.581 452.637L597.298 479.983L506.91 484.283L516.019 482.499C541.245 477.558 566.889 475.069 592.594 475.069C595.687 475.069 598.738 474.349 601.505 472.965Z" fill="#434444"/>
<path d="M460.658 457.723L510.759 484.491L507.599 499.658L455.618 465.379L450.793 473.223C449.334 475.596 445.725 474.971 445.148 472.245C444.027 466.94 446.5 461.525 451.244 458.899L453.269 457.778C455.563 456.508 458.345 456.487 460.658 457.723Z" fill="black"/>
<path d="M598.408 476.65L653.913 454.089C657.641 452.574 661.54 455.857 660.681 459.788L655.474 483.62L652.656 495.661C652.089 498.082 651.288 500.443 650.263 502.709C646.913 510.118 641.29 516.268 634.21 520.268L633.793 520.503L631.882 521.647C623.595 526.61 612.906 524.583 607.01 516.931C605.575 515.068 604.497 512.955 603.831 510.699L598.408 492.332H593.586L586.281 514.391C583.685 522.227 579.287 529.344 573.439 535.17L571.547 537.054C567.668 540.918 563.036 543.942 557.938 545.938L556.453 546.519C552.801 547.95 548.912 548.684 544.989 548.684H543.753C537.073 548.684 530.612 546.303 525.529 541.97C522.187 539.12 519.559 535.525 517.857 531.475L514.672 523.894L509.376 508.007L506.781 499.302V483.62L598.408 476.65Z" fill="black"/>
<path d="M603.731 483.529L657.021 462.931L652.294 489.731L651.259 493.9C649.984 499.03 647.848 503.906 644.941 508.32L643.238 510.906C642.361 512.236 641.332 513.459 640.171 514.549L638.377 516.235C636.145 518.331 633.568 520.026 630.758 521.246C625.301 523.615 618.935 522.071 615.169 517.466L613.496 515.42C612.138 513.761 611.111 511.857 610.47 509.811L606.253 496.353L603.731 483.529Z" fill="#585D5E"/>
<path d="M602.682 481.826L657.081 462.864L651.246 488.028L650.21 492.197C648.935 497.326 646.799 502.202 643.892 506.616L642.976 508.008C641.577 510.132 639.934 512.084 638.08 513.825L635.957 515.819C634.632 517.063 633.103 518.07 631.435 518.793C624.957 521.605 617.4 519.773 612.929 514.306L612.447 513.717C611.09 512.057 610.063 510.153 609.421 508.107L605.204 494.65L602.682 481.826Z" fill="#4D5253"/>
<path d="M657.049 462.712L650.865 489.732C643.707 491.697 636.116 488.652 632.3 482.284L626.937 473.334L641.922 468.075L657.049 462.712Z" fill="#585D5E"/>
<path d="M514.723 489.491L588.168 484.313L584.313 500.794L578.511 517.298C576.358 523.423 572.763 528.939 568.029 533.381L567.159 534.198C563.617 537.522 559.419 540.068 554.834 541.673L553.397 542.175C550.652 543.136 547.765 543.626 544.857 543.626H543.208C538.386 543.626 533.709 541.981 529.949 538.961C526.91 536.52 524.604 533.288 523.285 529.62L521.251 523.965C519.207 518.283 517.775 512.4 516.977 506.414L514.723 489.491Z" fill="#585D5E"/>
<path d="M514.278 489.581L588.203 484.283L584.312 496.203L577.472 515.662C576.001 519.845 573.546 523.612 570.313 526.646L567.159 529.607C563.617 532.931 559.418 535.477 554.833 537.081L553.397 537.584C550.652 538.544 547.764 539.035 544.856 539.035H543.207C538.386 539.035 533.708 537.389 529.949 534.37C526.91 531.929 524.604 528.696 523.284 525.028L519.785 515.299C518.714 512.322 517.889 509.263 517.319 506.152L514.278 489.581Z" fill="#4D5253"/>
<path d="M535.922 487.848L588.168 484.283L584.277 496.203L580.519 506.893C577.641 515.081 568.432 519.122 560.457 515.697C557.19 514.294 554.199 512.322 551.623 509.871L550.321 508.633C547.841 506.274 545.674 503.607 543.874 500.697L535.922 487.848Z" fill="#585D5E"/>
<path d="M424.524 224.743L471.446 203.996C511.634 186.226 556.278 181.106 599.445 189.315L552.558 127.286C541.367 112.481 535.772 105.078 529.665 98.3633C509.526 76.2167 484.672 58.8732 456.937 47.612C448.527 44.1975 439.648 41.4997 421.891 36.1041L421.891 36.104C412.003 33.0994 407.058 31.5971 402.078 30.3589C385.692 26.2851 368.857 24.3026 351.973 24.4588C346.841 24.5062 341.683 24.819 331.367 25.4444L294.691 27.6682C274.475 28.8939 264.367 29.5068 254.65 32.1026C244.932 34.6985 235.865 39.2081 217.731 48.2273L204.456 54.8298C191.141 61.4519 184.484 64.763 178.107 68.5481C173.527 71.2664 169.058 74.1665 164.709 77.2415C158.655 81.5234 152.918 86.2543 141.446 95.716L128.114 106.712C121.523 112.148 118.228 114.866 115.078 117.696C99.7672 131.453 86.672 147.491 76.2549 165.244C74.1115 168.896 72.1076 172.668 68.0998 180.213L68.0996 180.213C64.2227 187.511 62.2843 191.16 60.5113 194.856C51.8947 212.816 46.0096 231.962 43.0508 251.661C42.442 255.715 41.9962 259.823 41.1046 268.038L32.6241 346.182L37.4847 342.538C85.261 306.719 143.364 287.357 203.076 287.357L249.178 255.138C279.892 233.674 295.249 222.942 313.001 218.451C330.754 213.961 349.367 216.101 386.592 220.382L424.524 224.743Z" fill="#FE5A36"/>
<path d="M150.983 292.2L145.874 202.3C144.967 186.338 145.466 170.327 147.365 154.452L148.334 146.356C150.095 131.642 153.489 117.171 158.453 103.208C165.075 84.585 178.371 69.0807 195.767 59.6964L212.737 50.5416L250.541 32.4385L220.47 98.5315C211.527 118.189 207.055 128.018 204.785 138.49C202.514 148.962 202.514 159.76 202.514 181.357V288.239C192.076 287.74 186.857 287.49 181.652 287.783C176.447 288.077 171.29 288.912 160.978 290.582L150.983 292.2Z" fill="#ED5634"/>
<path d="M599.445 189.315L550.683 124.806L550.683 124.806C539.065 109.435 533.256 101.75 526.874 94.7844C508.565 74.799 486.384 58.7437 461.68 47.5936C453.069 43.7075 443.954 40.5897 425.724 34.3542L425.723 34.354C423.015 33.4277 421.661 32.9645 420.296 32.5409C416.391 31.3286 412.415 30.357 408.39 29.6315C406.984 29.378 405.569 29.1645 402.739 28.7373L398.247 28.0595C378.891 25.1384 369.213 23.6779 359.464 23.1682C356.649 23.0209 353.83 22.9333 351.011 22.9052C341.249 22.8081 331.499 23.6643 311.999 25.3768L253.549 30.5098L336.402 35.0712L336.403 35.0712C338.158 35.1679 339.036 35.2162 339.902 35.2714C370.644 37.2317 400.517 46.2664 427.192 61.6712C427.944 62.105 428.701 62.551 430.214 63.4424L430.217 63.4443L430.219 63.4453C432.344 64.6972 433.407 65.3234 434.436 65.9464C471.11 88.1505 499.678 121.552 515.928 161.224C516.384 162.338 516.838 163.485 517.746 165.78L526.362 187.559L545.383 186.292C554.703 185.671 559.363 185.361 564.025 185.485C568.686 185.609 573.323 186.168 582.596 187.285L582.597 187.285L599.445 189.315Z" fill="#FF8165"/>
<path d="M391.689 122.02L424.459 225.12C345.85 220.877 267.308 243.436 202.605 288.278L192.254 143.868L191.611 135.219C189.781 110.64 195.977 86.1304 209.266 65.3724L212.676 59.8351C215.772 54.8104 219.666 50.3242 224.206 46.5536L225.603 45.3925C228.855 42.6917 232.494 40.4945 236.398 38.8744L245.283 35.9919C261.332 30.7849 278.437 29.7232 295.007 32.9059L307.195 35.2469C337.877 41.1402 364.041 61.0348 377.921 89.0251L380.264 93.7502C384.786 102.869 388.606 112.32 391.689 122.02Z" fill="#FDFDFD"/>
<path d="M391.739 121.277L424.421 225.257L398.984 224.436L387.057 179.287L368.807 118.807C358.098 79.2948 326.705 48.7607 286.911 39.1517L256.925 31.911C256.567 31.8245 256.601 31.3038 256.968 31.2651L270.52 29.8355C282.178 28.6055 293.963 29.4351 305.334 32.2866L308.833 33.164C338.414 39.6824 363.718 59.3175 377.175 86.4545L380.121 92.3938C384.738 101.705 388.623 111.362 391.739 121.277Z" fill="#F4F3F1"/>
<path d="M11.6826 447.415H47.7253C48.8298 447.415 49.7253 446.519 49.7253 445.415V443.425C49.7253 442.354 48.8823 441.474 47.8127 441.427L9.69234 439.759C8.12145 439.69 7.08926 441.377 7.86586 442.745L9.94351 446.402C10.2989 447.028 10.963 447.415 11.6826 447.415Z" fill="#FDE836"/>
<path d="M240.478 443.508H204.435C203.33 443.508 202.435 444.403 202.435 445.508V447.497C202.435 448.568 203.278 449.449 204.347 449.495L242.468 451.164C244.039 451.232 245.071 449.545 244.294 448.178L242.217 444.52C241.861 443.894 241.197 443.508 240.478 443.508Z" fill="#FDE836"/>
<ellipse rx="70.3387" ry="70.8593" transform="matrix(0.862803 0.505541 0.49448 -0.869189 123.629 441.896)" fill="#FFF281"/>
<path d="M76.7937 414.454C83.6512 402.4 94.1008 391.193 108.558 387.002C134.898 379.368 180.308 392.985 158.668 380.306C125.15 360.667 82.2921 372.322 62.9408 406.337C43.5896 440.352 55.0735 483.848 88.5908 503.486C108.844 515.353 81.2741 495.246 74.4526 470.617C69.9849 454.487 69.1354 427.916 76.7937 414.454Z" fill="#FDE836"/>
<path d="M125.189 556.343V519.7C125.189 518.596 124.294 517.7 123.189 517.7H121.289C120.217 517.7 119.336 518.545 119.291 519.616L117.645 558.332C117.578 559.913 119.287 560.943 120.654 560.143L124.199 558.069C124.813 557.71 125.189 557.053 125.189 556.343Z" fill="#FDE836"/>
<path d="M117.488 328.251V364.894C117.488 365.998 118.384 366.894 119.488 366.894H121.389C122.461 366.894 123.342 366.049 123.387 364.979L125.032 326.262C125.099 324.681 123.39 323.652 122.024 324.451L118.478 326.525C117.865 326.884 117.488 327.541 117.488 328.251Z" fill="#FDE836"/>
<path d="M31.8518 526.134L57.3604 500.247C58.1357 499.46 58.1357 498.184 57.3604 497.398L55.9951 496.012C55.2433 495.249 54.0328 495.223 53.2494 495.952L25.1206 522.138C23.9667 523.213 24.4352 525.156 25.9475 525.569L29.933 526.655C30.6184 526.842 31.35 526.644 31.8518 526.134Z" fill="#FDE836"/>
<path d="M210.427 527.941L184.478 502.51C183.689 501.737 182.432 501.759 181.671 502.559L180.329 503.97C179.591 504.746 179.586 505.974 180.318 506.757L206.608 534.842C207.687 535.994 209.593 535.485 209.973 533.944L210.974 529.88C211.147 529.181 210.938 528.442 210.427 527.941Z" fill="#FDE836"/>
<path d="M209.963 360.881L184.454 386.769C183.679 387.556 183.679 388.831 184.454 389.618L185.819 391.004C186.571 391.767 187.782 391.793 188.565 391.064L216.694 364.877C217.848 363.803 217.379 361.859 215.867 361.447L211.881 360.36C211.196 360.173 210.464 360.372 209.963 360.881Z" fill="#FDE836"/>
<path d="M31.8518 366.406L57.3604 392.294C58.1357 393.08 59.3926 393.08 60.1679 392.294L61.5332 390.908C62.285 390.145 62.3111 388.917 61.5924 388.122L35.7893 359.575C34.7308 358.404 32.8155 358.879 32.4092 360.414L31.3384 364.459C31.1542 365.154 31.35 365.897 31.8518 366.406Z" fill="#FDE836"/>
<path d="M251.028 23.4321L263.299 30.3697C255.693 34.7715 247.281 37.6034 238.561 38.698L237.791 38.7946L240.284 27.134C243.959 26.2592 247.54 25.0274 250.976 23.4561L251.028 23.4321Z" fill="#FE5A36"/>
</svg>
